<svg width="24" height="24" viewBox="0 0 24 24" fill="none" xmlns="http://www.w3.org/2000/svg">
<path d="M20.492 3.67031C20.4885 3.57515 20.4655 3.48172 20.4244 3.3958C20.3833 3.30989 20.3251 3.23331 20.2532 3.17082C20.1814 3.10833 20.0975 3.06125 20.0067 3.03249C19.9159 3.00374 19.8202 2.99391 19.7254 3.00364C19.5367 3.00359 19.3552 3.0763 19.2186 3.20665C19.0821 3.33699 19.0011 3.51495 18.9924 3.70351V18.4008C18.9862 18.4664 18.9552 18.5271 18.9056 18.5705C18.856 18.6139 18.7917 18.6367 18.7259 18.6341H4.99494C4.92911 18.6367 4.86479 18.6139 4.81522 18.5705C4.76565 18.5271 4.7346 18.4664 4.72845 18.4008V3.70381C4.71983 3.51514 4.63878 3.33707 4.50218 3.20665C4.36558 3.07623 4.18395 3.00352 3.99508 3.00364C3.90096 2.99701 3.80645 3.009 3.71697 3.03892C3.62748 3.06885 3.54478 3.11612 3.47358 3.17804C3.40238 3.23996 3.34409 3.31531 3.30204 3.39978C3.25999 3.48425 3.23501 3.57618 3.22852 3.67031V19.334C3.23881 19.519 3.32143 19.6927 3.45857 19.8174C3.59571 19.9421 3.77636 20.0079 3.96159 20.0006H19.7254C19.9107 20.0079 20.0913 19.9421 20.2285 19.8174C20.3656 19.6927 20.4482 19.519 20.4585 19.334V19.334V3.67031H20.492Z" fill="white"/>
<path d="M17.6922 6.36961L17.659 6.40281C17.5927 6.52936 17.4916 6.63427 17.3676 6.70513C17.2435 6.776 17.1018 6.80986 16.9591 6.8027H6.79456C6.64458 6.80361 6.49716 6.76377 6.36805 6.68745C6.23894 6.61112 6.13298 6.50116 6.06149 6.36931L6.02829 6.33611C6.02059 6.32249 6.00863 6.31177 5.99425 6.3056C5.97987 6.29943 5.96386 6.29814 5.94869 6.30195C5.93351 6.30575 5.91999 6.31443 5.91022 6.32665C5.90045 6.33888 5.89496 6.35397 5.8946 6.36961V17.2341C5.89386 17.2649 5.89939 17.2956 5.91085 17.3242C5.92231 17.3528 5.93947 17.3789 5.96128 17.4007C5.9831 17.4225 6.00911 17.4396 6.03775 17.4511C6.06638 17.4626 6.09705 17.4681 6.12789 17.4674H17.6258C17.6567 17.4681 17.6873 17.4626 17.716 17.4511C17.7446 17.4396 17.7706 17.4225 17.7924 17.4007C17.8142 17.3789 17.8314 17.3528 17.8428 17.3242C17.8543 17.2956 17.8598 17.2649 17.8591 17.2341V6.40281C17.8582 6.30262 17.7589 6.26972 17.6922 6.36961ZM9.99393 16.1011C9.99393 16.1804 9.96242 16.2565 9.90633 16.3126C9.85024 16.3687 9.77416 16.4002 9.69484 16.4002H7.22764C7.14832 16.4002 7.07224 16.3687 7.01615 16.3126C6.96006 16.2565 6.92855 16.1804 6.92855 16.1011V15.5011C6.92855 15.4218 6.96006 15.3457 7.01615 15.2896C7.07224 15.2336 7.14832 15.202 7.22764 15.202H9.72714C9.80646 15.202 9.88254 15.2336 9.93863 15.2896C9.99472 15.3457 10.0262 15.4218 10.0262 15.5011V16.1011H9.99393ZM9.99393 14.0673C9.99393 14.1466 9.96242 14.2227 9.90633 14.2788C9.85024 14.3349 9.77416 14.3664 9.69484 14.3664H7.22764C7.14832 14.3664 7.07224 14.3349 7.01615 14.2788C6.96006 14.2227 6.92855 14.1466 6.92855 14.0673V13.4682C6.92855 13.3889 6.96006 13.3128 7.01615 13.2567C7.07224 13.2006 7.14832 13.1691 7.22764 13.1691H9.72714C9.80646 13.1691 9.88254 13.2006 9.93863 13.2567C9.99472 13.3128 10.0262 13.3889 10.0262 13.4682V14.0682L9.99393 14.0673ZM9.99393 12.0009C9.99393 12.0802 9.96242 12.1563 9.90633 12.2124C9.85024 12.2685 9.77416 12.3 9.69484 12.3H7.22764C7.14832 12.3 7.07224 12.2685 7.01615 12.2124C6.96006 12.1563 6.92855 12.0802 6.92855 12.0009V11.4021C6.92855 11.3228 6.96006 11.2467 7.01615 11.1906C7.07224 11.1345 7.14832 11.103 7.22764 11.103H9.72714C9.80646 11.103 9.88254 11.1345 9.93863 11.1906C9.99472 11.2467 10.0262 11.3228 10.0262 11.4021V12.0021L9.99393 12.0009ZM9.99393 9.96707C9.99393 10.0464 9.96242 10.1225 9.90633 10.1786C9.85024 10.2346 9.77416 10.2662 9.69484 10.2662H7.22764C7.14832 10.2662 7.07224 10.2346 7.01615 10.1786C6.96006 10.1225 6.92855 10.0464 6.92855 9.96707V9.36889C6.92855 9.28957 6.96006 9.21349 7.01615 9.1574C7.07224 9.10131 7.14832 9.0698 7.22764 9.0698H9.72714C9.80646 9.0698 9.88254 9.10131 9.93863 9.1574C9.99472 9.21349 10.0262 9.28957 10.0262 9.36889V9.96887L9.99393 9.96707Z" fill="white"/>
</svg>
