<svg width="24" height="24" viewBox="0 0 24 24" fill="none" xmlns="http://www.w3.org/2000/svg">
<path d="M19.0402 6.93099C18.9574 6.22197 18.6839 5.54867 18.2488 4.98276C17.8136 4.41686 17.2332 3.97952 16.5693 3.71729C15.9054 3.45507 15.1828 3.37777 14.4784 3.49363C13.774 3.60949 13.1142 3.91417 12.5693 4.37524C12.1587 3.84254 11.6046 3.4382 10.972 3.2098C10.3395 2.9814 9.65481 2.93846 8.99866 3.08602C8.34252 3.23357 7.74217 3.56549 7.26829 4.04271C6.79441 4.51993 6.46671 5.12259 6.32376 5.77975C5.81692 5.81049 5.32264 5.94997 4.87449 6.1887C4.42634 6.42744 4.03484 6.75985 3.72658 7.16334C3.41831 7.56683 3.20051 8.03195 3.08798 8.52709C2.97545 9.02224 2.97081 9.5358 3.0744 10.0329C3.17798 10.53 3.38735 10.999 3.68828 11.4079C3.98922 11.8169 4.37466 12.1564 4.81843 12.4031C5.26219 12.6499 5.75388 12.7983 6.26009 12.8382C6.76629 12.878 7.27514 12.8085 7.75208 12.6342C8.28495 13.3765 9.08508 13.883 9.98397 14.0471C10.8829 14.2112 11.8104 14.0201 12.5712 13.514C12.9745 13.9088 13.4666 14.2012 14.0063 14.3667C14.5459 14.5321 15.1174 14.5658 15.6727 14.4649C16.2281 14.364 16.7512 14.1314 17.1981 13.7867C17.645 13.442 18.0028 12.9951 18.2415 12.4836C18.4181 12.519 18.5977 12.5372 18.7778 12.5378C19.502 12.5407 20.1994 12.2638 20.7243 11.7648C21.2492 11.2659 21.5612 10.5835 21.595 9.86008C21.6289 9.13666 21.382 8.42812 20.906 7.88234C20.43 7.33656 19.7615 6.99573 19.0402 6.93099V6.93099Z" fill="white"/>
<path d="M6.65721 14.5244C6.65721 14.5244 5.56641 16.2993 5.56641 16.902C5.56641 17.1913 5.68133 17.4688 5.8859 17.6733C6.09046 17.8779 6.36791 17.9928 6.65721 17.9928C6.94651 17.9928 7.22396 17.8779 7.42853 17.6733C7.63309 17.4688 7.74801 17.1913 7.74801 16.902C7.74801 16.2993 6.65721 14.5244 6.65721 14.5244Z" fill="white"/>
<path d="M8.3916 19.474C8.3916 19.7633 8.50653 20.0408 8.71109 20.2453C8.91566 20.4499 9.19311 20.5648 9.48241 20.5648C9.7717 20.5648 10.0492 20.4499 10.2537 20.2453C10.4583 20.0408 10.5732 19.7633 10.5732 19.474C10.5732 18.8726 9.48241 17.0977 9.48241 17.0977C9.48241 17.0977 8.3916 18.8694 8.3916 19.474Z" fill="white"/>
<path d="M12.3076 14.5244C12.3076 14.5244 11.2168 16.2993 11.2168 16.9008C11.2168 17.1901 11.3317 17.4675 11.5363 17.6721C11.7409 17.8766 12.0183 17.9916 12.3076 17.9916C12.5969 17.9916 12.8744 17.8766 13.0789 17.6721C13.2835 17.4675 13.3984 17.1901 13.3984 16.9008C13.3984 16.2993 12.3076 14.5244 12.3076 14.5244Z" fill="white"/>
<path d="M14.041 19.474C14.041 19.7633 14.1559 20.0408 14.3605 20.2453C14.5651 20.4499 14.8425 20.5648 15.1318 20.5648C15.4211 20.5648 15.6986 20.4499 15.9031 20.2453C16.1077 20.0408 16.2226 19.7633 16.2226 19.474C16.2226 18.8726 15.1318 17.0977 15.1318 17.0977C15.1318 17.0977 14.041 18.8694 14.041 19.474Z" fill="white"/>
<path d="M16.8662 16.9017C16.8662 17.191 16.9811 17.4685 17.1857 17.6731C17.3903 17.8776 17.6677 17.9925 17.957 17.9925C18.2463 17.9925 18.5238 17.8776 18.7283 17.6731C18.9329 17.4685 19.0478 17.191 19.0478 16.9017C19.0478 16.3003 17.9576 14.5254 17.9576 14.5254C17.9576 14.5254 16.8662 16.2972 16.8662 16.9017Z" fill="white"/>
</svg>
