<svg width="24" height="24" viewBox="0 0 24 24" fill="none" xmlns="http://www.w3.org/2000/svg">
<path d="M21.0441 10.847C20.8524 10.544 20.6019 10.2824 20.3075 10.0778C20.013 9.87308 19.6806 9.72943 19.3298 9.65528C19.0374 9.59064 18.7351 9.58536 18.4406 9.63976C18.1462 9.69417 17.8657 9.80714 17.6157 9.97199C17.1118 10.3029 16.7573 10.8177 16.6281 11.4066C16.5732 11.651 16.568 11.9039 16.6129 12.1504C16.6577 12.3968 16.7516 12.6317 16.8891 12.8411C17.1644 13.2592 17.5919 13.5534 18.0808 13.6611C18.1315 13.6736 18.1842 13.6759 18.2358 13.6677C18.2874 13.6596 18.3369 13.6411 18.3813 13.6136C18.4256 13.586 18.464 13.5498 18.4942 13.5072C18.5243 13.4645 18.5457 13.4162 18.5569 13.3652C18.5681 13.3142 18.5689 13.2614 18.5594 13.2101C18.5499 13.1587 18.5302 13.1098 18.5015 13.0661C18.4727 13.0225 18.4355 12.9851 18.3921 12.956C18.3487 12.927 18.2999 12.907 18.2486 12.8971C18.1032 12.8704 17.9651 12.8135 17.8432 12.73C17.7213 12.6466 17.6182 12.5385 17.5407 12.4127C17.4576 12.2916 17.4014 12.1541 17.3757 12.0096C17.35 11.865 17.3555 11.7166 17.3917 11.5743C17.4294 11.3821 17.507 11.2 17.6193 11.0395C17.7316 10.8791 17.8762 10.7439 18.0439 10.6426C18.3776 10.4366 18.7766 10.3634 19.1617 10.4377C19.4126 10.4925 19.6502 10.5963 19.8609 10.7431C20.0716 10.8899 20.2513 11.0768 20.3897 11.2931C20.5281 11.5095 20.6224 11.751 20.6673 12.0038C20.7122 12.2567 20.7068 12.5159 20.6514 12.7666C20.5819 13.0932 20.4486 13.4029 20.2592 13.6779C20.0699 13.9528 19.8281 14.1878 19.5478 14.3693C19.2676 14.5507 18.9542 14.6751 18.6258 14.7353C18.2974 14.7956 17.9603 14.7904 17.6339 14.7202C17.1479 14.5804 16.6838 14.3734 16.2551 14.1053C14.69 13.2481 12.5657 12.0742 8.44908 14.5522C8.40498 14.5791 8.36661 14.6144 8.33618 14.6561C8.30574 14.6978 8.28383 14.7451 8.27171 14.7953C8.25959 14.8455 8.25749 14.8976 8.26553 14.9487C8.27358 14.9997 8.2916 15.0486 8.31858 15.0926C8.33964 15.1324 8.37212 15.1648 8.41184 15.1859C8.47553 15.2342 8.55247 15.2619 8.63235 15.2653C8.71223 15.2686 8.79122 15.2475 8.85874 15.2047C12.5854 12.9502 14.3366 13.9191 15.8832 14.7762C16.3781 15.0756 16.9108 15.3074 17.4671 15.4657C18.3266 15.653 19.2254 15.4915 19.9659 15.0165C20.7064 14.5415 21.2281 13.792 21.4162 12.9326C21.5698 12.2155 21.4362 11.4668 21.0441 10.847V10.847Z" fill="white"/>
<path fill-rule="evenodd" clip-rule="evenodd" d="M19.3608 9.50923C19.7308 9.58753 20.0815 9.7391 20.3921 9.955C20.7028 10.171 20.9672 10.4471 21.1695 10.7669C21.5824 11.4196 21.7231 12.2081 21.5615 12.9633L21.5613 12.964C21.3647 13.862 20.8197 14.6452 20.0459 15.1415C19.2722 15.6378 18.333 15.8066 17.4349 15.6108L17.4303 15.6098L17.4259 15.6085C16.8577 15.4469 16.3137 15.2102 15.8081 14.9047C15.034 14.4757 14.2371 14.037 13.1789 13.9718C12.1218 13.9067 10.7828 14.2143 8.93662 15.3309C8.84377 15.3894 8.73531 15.4183 8.62565 15.4137C8.51926 15.4092 8.41663 15.3734 8.33058 15.311C8.27094 15.2767 8.22186 15.2267 8.18882 15.1662C8.15287 15.1065 8.1288 15.0403 8.11794 14.9714C8.10684 14.901 8.10974 14.8292 8.12646 14.7599C8.14318 14.6907 8.1734 14.6254 8.21538 14.5679C8.25736 14.5103 8.31028 14.4616 8.37111 14.4245L8.37181 14.4241C10.4491 13.1737 12.0397 12.8354 13.3193 12.929C14.5875 13.0219 15.5313 13.5388 16.3099 13.9652L16.3299 13.9762L16.3336 13.9785C16.7491 14.2384 17.1988 14.4392 17.6697 14.5752C17.9755 14.6403 18.291 14.6448 18.5985 14.5884C18.9077 14.5317 19.2026 14.4146 19.4664 14.2438C19.7303 14.0729 19.9578 13.8518 20.1361 13.5929C20.3143 13.3341 20.4398 13.0426 20.5053 12.7352L20.5055 12.7341C20.5567 12.5024 20.5617 12.263 20.5202 12.0294C20.4787 11.7959 20.3916 11.5728 20.2638 11.373C20.1359 11.1731 19.97 11.0005 19.7753 10.8649C19.5812 10.7296 19.3624 10.6339 19.1313 10.5832C18.7834 10.5166 18.4231 10.5829 18.1217 10.769L18.1204 10.7697C17.9706 10.8602 17.8413 10.9811 17.7409 11.1245C17.6405 11.2679 17.5712 11.4308 17.5374 11.6026L17.5366 11.6066L17.5356 11.6106C17.5046 11.7324 17.5 11.8593 17.522 11.9831C17.5439 12.1068 17.5921 12.2244 17.6631 12.328L17.6651 12.331L17.667 12.3341C17.7336 12.4421 17.8221 12.535 17.9269 12.6067C18.0316 12.6783 18.1502 12.7272 18.275 12.7502L18.2762 12.7504C18.347 12.764 18.4144 12.7917 18.4744 12.8317C18.5344 12.8718 18.5857 12.9235 18.6254 12.9837C18.6651 13.044 18.6923 13.1116 18.7055 13.1825C18.7186 13.2534 18.7174 13.3263 18.7019 13.3967C18.6865 13.4672 18.657 13.5338 18.6154 13.5927C18.5737 13.6516 18.5207 13.7016 18.4594 13.7397C18.3982 13.7777 18.3299 13.8031 18.2586 13.8144C18.1881 13.8256 18.116 13.8226 18.0466 13.8057C17.5205 13.6894 17.0605 13.3726 16.7642 12.9226C16.6158 12.6965 16.5143 12.4427 16.4659 12.1766C16.4175 11.9106 16.423 11.6376 16.4822 11.3738C16.6199 10.7473 16.9971 10.1993 17.5333 9.84717C17.7999 9.67135 18.0991 9.55085 18.4131 9.49283C18.7269 9.43484 19.0492 9.44042 19.3608 9.50923ZM20.9178 10.9262C20.7367 10.64 20.5001 10.393 20.222 10.1996C19.9439 10.0063 19.6299 9.87062 19.2985 9.80058L19.2972 9.8003C19.0243 9.73996 18.7421 9.73503 18.4672 9.78581C18.1924 9.83659 17.9306 9.94204 17.6973 10.0959L17.6971 10.0961C17.2257 10.4056 16.8941 10.8872 16.7731 11.4381L16.773 11.4387C16.7225 11.6637 16.7177 11.8964 16.759 12.1232C16.8002 12.35 16.8867 12.5662 17.0132 12.759C17.2671 13.1445 17.6615 13.4158 18.1124 13.5151L18.1162 13.516C18.1476 13.5237 18.1802 13.5252 18.2121 13.5201C18.2441 13.5151 18.2747 13.5037 18.3022 13.4866C18.3297 13.4695 18.3534 13.4471 18.3721 13.4207C18.3908 13.3943 18.404 13.3644 18.4109 13.3328C18.4179 13.3012 18.4184 13.2686 18.4125 13.2368C18.4066 13.2049 18.3944 13.1746 18.3766 13.1476C18.3588 13.1206 18.3358 13.0974 18.3089 13.0795C18.2821 13.0616 18.2521 13.0492 18.2205 13.0431C18.0549 13.0125 17.8976 12.9476 17.7586 12.8525C17.6205 12.758 17.5035 12.6357 17.4153 12.4935C17.3214 12.3556 17.2578 12.1994 17.2286 12.0352C17.1995 11.8711 17.2053 11.7027 17.2459 11.5411C17.2879 11.3301 17.3734 11.13 17.4968 10.9536C17.6209 10.7764 17.7806 10.627 17.9658 10.5151C18.3312 10.2897 18.7679 10.2097 19.1895 10.2909L19.1931 10.2916C19.4631 10.3507 19.7188 10.4624 19.9456 10.6204C20.1724 10.7784 20.3658 10.9796 20.5147 11.2124C20.6637 11.4453 20.7652 11.7052 20.8136 11.9773C20.8619 12.2493 20.8561 12.5281 20.7966 12.7978C20.7229 13.1433 20.5818 13.4709 20.3815 13.7619C20.181 14.053 19.9251 14.3018 19.6283 14.4939C19.3316 14.686 18.9999 14.8177 18.6522 14.8814C18.3046 14.9452 17.9477 14.9397 17.6021 14.8654L17.5972 14.8643L17.5923 14.8629C17.0943 14.7197 16.6188 14.5078 16.1793 14.2334C15.3969 13.8049 14.5011 13.3143 13.2976 13.2262C12.0947 13.1381 10.565 13.4518 8.52589 14.6791C8.49863 14.6958 8.47491 14.7176 8.45608 14.7434C8.43719 14.7693 8.4236 14.7987 8.41607 14.8299C8.40855 14.861 8.40725 14.8934 8.41224 14.925C8.41723 14.9567 8.42842 14.987 8.44516 15.0144L8.44758 15.0183L8.44975 15.0224C8.45685 15.0358 8.46779 15.0467 8.48117 15.0538L8.49182 15.0595L8.50142 15.0668C8.54092 15.0967 8.58863 15.1139 8.63816 15.116C8.68769 15.1181 8.73667 15.105 8.77853 15.0784L8.78117 15.0767C10.661 13.9395 12.0606 13.6044 13.1972 13.6744C14.3287 13.7441 15.1786 14.2152 15.9487 14.642L15.9575 14.6469L15.9599 14.6483C16.4421 14.94 16.961 15.1661 17.5029 15.3206C18.3225 15.4981 19.1791 15.3435 19.8851 14.8907C20.5923 14.437 21.0905 13.7212 21.2702 12.9004C21.4154 12.2216 21.2889 11.5129 20.9178 10.9262Z" fill="white"/>
<path d="M14.5042 15.4105C14.1385 15.1741 13.7294 15.0128 13.3008 14.9361C12.8721 14.8594 12.4325 14.8687 12.0075 14.9636C11.4471 15.1103 10.9128 15.3428 10.4236 15.6531C8.87705 16.4912 7.12577 17.4601 3.39976 15.224C3.33552 15.1727 3.25492 15.1464 3.1728 15.1498C3.09067 15.1533 3.01256 15.1863 2.95285 15.2428C2.91561 15.2616 2.89684 15.2988 2.8596 15.3361C2.83262 15.3801 2.81459 15.429 2.80655 15.48C2.79851 15.531 2.80061 15.5832 2.81273 15.6334C2.82485 15.6836 2.84675 15.7309 2.87719 15.7726C2.90763 15.8143 2.94599 15.8496 2.9901 15.8765C7.08912 18.3548 9.23189 17.1809 10.7961 16.3234C11.2248 16.0553 11.6889 15.8483 12.1749 15.7085C12.5025 15.6353 12.8414 15.629 13.1714 15.6898C13.5015 15.7507 13.8158 15.8775 14.0957 16.0627C14.3788 16.2404 14.6225 16.4743 14.8116 16.7499C15.0007 17.0255 15.1312 17.337 15.1951 17.665C15.2505 17.9158 15.2559 18.175 15.211 18.4279C15.1661 18.6807 15.0718 18.9222 14.9334 19.1385C14.795 19.3549 14.6153 19.5418 14.4046 19.6886C14.1939 19.8354 13.9563 19.9392 13.7054 19.994C13.5148 20.0354 13.3179 20.0386 13.126 20.0034C12.9341 19.9682 12.7511 19.8953 12.5876 19.789C12.2578 19.5746 12.024 19.2406 11.9354 18.8574C11.8825 18.5691 11.9354 18.2714 12.0844 18.019C12.1599 17.8915 12.2624 17.7821 12.3847 17.6984C12.507 17.6147 12.6461 17.5588 12.7923 17.5345C12.8912 17.51 12.9767 17.4479 13.0305 17.3613C13.0844 17.2747 13.1022 17.1705 13.0804 17.0709C13.0585 16.9713 12.9986 16.8842 12.9135 16.8281C12.8283 16.772 12.7246 16.7514 12.6245 16.7706C12.1356 16.8783 11.7081 17.1724 11.4328 17.5905C11.2946 17.7996 11.2002 18.0345 11.1553 18.2811C11.1105 18.5277 11.1161 18.7808 11.1718 19.0251C11.2979 19.6156 11.6533 20.1318 12.1599 20.4603C12.6666 20.7888 13.2829 20.9026 13.8735 20.7767C14.2243 20.7025 14.5566 20.5588 14.851 20.3542C15.1454 20.1495 15.3958 19.8879 15.5875 19.5849C15.9785 18.9712 16.1124 18.2283 15.9602 17.5167C15.8687 17.0868 15.6929 16.6794 15.443 16.3179C15.1931 15.9564 14.874 15.648 14.5042 15.4105V15.4105Z" fill="white"/>
<path fill-rule="evenodd" clip-rule="evenodd" d="M11.9746 14.8168C12.4189 14.7176 12.8785 14.7078 13.3266 14.788C13.7746 14.8682 14.2022 15.0368 14.5844 15.2839C14.9707 15.5319 15.3041 15.8541 15.5651 16.2317C15.8262 16.6094 16.0099 17.035 16.1055 17.4841C16.2658 18.234 16.1247 19.0168 15.7127 19.6636C15.5104 19.9832 15.2462 20.2591 14.9356 20.4751C14.6249 20.6911 14.2741 20.8427 13.9038 20.921C13.2748 21.0551 12.6182 20.9338 12.0785 20.5839C11.539 20.2341 11.1604 19.6845 11.0258 19.0558C10.9659 18.7921 10.9599 18.5191 11.0083 18.253C11.0568 17.9867 11.1587 17.7329 11.308 17.5071C11.6046 17.0566 12.0653 16.7397 12.592 16.6237L12.596 16.6229C12.7342 16.5963 12.8774 16.6248 12.995 16.7023C13.1125 16.7797 13.1952 16.9 13.2254 17.0375C13.2556 17.175 13.2309 17.3189 13.1566 17.4385C13.0823 17.5581 12.9643 17.6439 12.8276 17.6777L12.8219 17.6791L12.8162 17.6801C12.6914 17.7008 12.5727 17.7485 12.4684 17.8199C12.364 17.8913 12.2765 17.9847 12.2121 18.0935C12.082 18.314 12.0354 18.5738 12.0809 18.8257C12.1613 19.17 12.3718 19.4699 12.6683 19.6627C12.8154 19.7583 12.9799 19.8238 13.1524 19.8554C13.3249 19.8871 13.5019 19.8842 13.6733 19.847C13.905 19.7964 14.1244 19.7005 14.319 19.5649C14.5137 19.4293 14.6796 19.2567 14.8075 19.0569C14.9353 18.857 15.0224 18.6339 15.0639 18.4004C15.1054 18.1668 15.1004 17.9274 15.0492 17.6958L15.0484 17.6921C14.9884 17.384 14.8659 17.0915 14.6883 16.8327C14.5107 16.5739 14.2819 16.3543 14.0161 16.1875L14.0131 16.1856C13.7499 16.0114 13.4543 15.8921 13.144 15.8349C12.8351 15.7779 12.5179 15.7836 12.2113 15.8515C11.7402 15.9874 11.2903 16.1883 10.8746 16.4483L10.871 16.4506L10.8618 16.4556C10.0812 16.8835 9.13041 17.4047 7.85406 17.498C6.57221 17.5917 4.98128 17.2533 2.91258 16.0026L2.91213 16.0023C2.8513 15.9652 2.79837 15.9165 2.75639 15.859C2.71441 15.8014 2.6842 15.7361 2.66747 15.6669C2.65075 15.5976 2.64786 15.5258 2.65895 15.4554C2.67005 15.385 2.69491 15.3176 2.73213 15.2568L2.74134 15.2418L2.75382 15.2293C2.76202 15.2211 2.76656 15.2156 2.77377 15.2067C2.77842 15.2011 2.78418 15.194 2.79275 15.184C2.80741 15.167 2.83039 15.1417 2.86399 15.1205C2.94783 15.047 3.05438 15.0043 3.1661 14.9996C3.2805 14.9948 3.39284 15.0302 3.4837 15.0995C5.32607 16.2037 6.66319 16.5062 7.71939 16.4412C8.77314 16.3764 9.56761 15.9459 10.3388 15.5279L10.3478 15.5231C10.8487 15.206 11.3957 14.9682 11.9693 14.8181L11.9719 14.8174L11.9746 14.8168ZM14.5038 15.4091L14.4229 15.5342C14.0738 15.3085 13.6833 15.1546 13.2741 15.0813C12.8658 15.0082 12.447 15.017 12.0421 15.107C11.4976 15.2498 10.9784 15.4759 10.503 15.7774L10.4987 15.7802L10.4653 15.7982C9.70174 16.2121 8.85749 16.6697 7.73769 16.7386C6.60157 16.8085 5.20231 16.4783 3.32266 15.3503L3.31414 15.3452L3.30637 15.339C3.27021 15.3102 3.22483 15.2953 3.1786 15.2973C3.13237 15.2992 3.0884 15.3178 3.05479 15.3496L3.03894 15.3646L3.02437 15.3719C3.02318 15.3732 3.02135 15.3752 3.01881 15.3781C3.01634 15.381 3.01364 15.3842 3.01011 15.3885C3.00959 15.3891 3.00904 15.3898 3.00847 15.3905C3.00548 15.3941 3.0019 15.3985 2.99826 15.4028C2.9928 15.4093 2.98645 15.4167 2.97922 15.4246C2.96631 15.4486 2.95752 15.4748 2.95326 15.5018C2.94826 15.5335 2.94957 15.5658 2.95709 15.597C2.96461 15.6281 2.97821 15.6575 2.9971 15.6834C3.01594 15.7092 3.03968 15.7311 3.06697 15.7478C5.09717 16.9752 6.62706 17.2889 7.83235 17.2009C9.03831 17.1127 9.93854 16.6219 10.7203 16.1934C11.1598 15.919 11.6353 15.7071 12.1333 15.5639L12.1376 15.5626L12.142 15.5617C12.4891 15.4841 12.8483 15.4774 13.198 15.5419C13.5472 15.6063 13.8798 15.7404 14.176 15.9361C14.4757 16.1245 14.7337 16.3722 14.934 16.6642C15.1343 16.9561 15.2726 17.2859 15.3405 17.6333C15.3998 17.9026 15.4055 18.181 15.3573 18.4525C15.3089 18.7246 15.2074 18.9846 15.0584 19.2174C14.9095 19.4502 14.7161 19.6514 14.4893 19.8094C14.2625 19.9674 14.0068 20.0791 13.7368 20.1381C13.5269 20.1837 13.3099 20.1872 13.0987 20.1485C12.8874 20.1098 12.686 20.0295 12.5059 19.9125C12.1438 19.6771 11.8871 19.3103 11.7898 18.8895L11.789 18.8862L11.7884 18.8829C11.729 18.5593 11.7884 18.2251 11.9556 17.9418C12.0422 17.7957 12.1599 17.67 12.3001 17.574C12.4385 17.4793 12.5956 17.4156 12.7608 17.3873C12.8201 17.3713 12.8711 17.3334 12.9036 17.2812C12.9369 17.2276 12.948 17.1631 12.9344 17.1014C12.9209 17.0398 12.8838 16.9858 12.8311 16.9511C12.7789 16.9167 12.7154 16.9038 12.6539 16.9152C12.2039 17.0149 11.8103 17.286 11.5567 17.671C11.4297 17.8633 11.3427 18.0796 11.3015 18.3063C11.2602 18.5331 11.2653 18.7659 11.3166 18.9906L11.317 18.9926C11.4349 19.5444 11.767 20.0269 12.2405 20.3339C12.714 20.6409 13.2901 20.7472 13.842 20.6296C14.1733 20.5595 14.4875 20.4238 14.7655 20.2304C15.0436 20.0371 15.2801 19.7901 15.4612 19.5039L15.4614 19.5035C15.8314 18.9227 15.9581 18.2198 15.8141 17.5464C15.7267 17.1358 15.5588 16.7465 15.32 16.4011C15.0813 16.0558 14.7765 15.7613 14.4233 15.5345L14.5038 15.4091Z" fill="white"/>
<path d="M9.4121 9.21391L11.4217 7.20432L9.4121 5.19473H6.71099V4.22226C6.71084 4.16336 6.68737 4.10692 6.64572 4.06527C6.60407 4.02362 6.54763 4.00016 6.48873 4H5.68817C5.62927 4.00016 5.57283 4.02362 5.53118 4.06527C5.48954 4.10692 5.46607 4.16336 5.46591 4.22226V5.19473H2.10577C2.09188 5.19473 2.07812 5.19747 2.06529 5.20278C2.05246 5.2081 2.0408 5.21589 2.03098 5.22571C2.02116 5.23553 2.01337 5.24719 2.00805 5.26002C2.00274 5.27286 2 5.28661 2 5.3005V9.10844C2 9.13649 2.01114 9.1634 2.03098 9.18323C2.05081 9.20307 2.07772 9.21421 2.10577 9.21421H5.46591V10.0029H4.22291L3.21797 11.0078L4.22291 12.0127H5.46621V13.9613C5.46637 14.0202 5.48982 14.0767 5.53146 14.1183C5.5731 14.16 5.62954 14.1836 5.68847 14.1838H6.48903C6.54796 14.1836 6.6044 14.16 6.64604 14.1183C6.68768 14.0767 6.71113 14.0202 6.71129 13.9613V12.0127H8.24627C8.27432 12.0127 8.30122 12.0016 8.32106 11.9818C8.34089 11.9619 8.35204 11.935 8.35204 11.907V10.1077C8.35204 10.0797 8.34089 10.0528 8.32106 10.0329C8.30122 10.0131 8.27432 10.002 8.24627 10.002H6.71099V9.21391H9.4121Z" fill="white"/>
</svg>
