<svg width="24" height="24" viewBox="0 0 24 24" fill="none" xmlns="http://www.w3.org/2000/svg">
<path d="M6.53223 17.7006C6.53131 16.964 6.68628 16.2355 6.98696 15.563C7.28764 14.8905 7.72722 14.2893 8.27681 13.7988V5.48917C8.27681 4.56378 8.64442 3.6763 9.29877 3.02195C9.95311 2.36761 10.8406 2 11.766 2C12.6914 2 13.5789 2.36761 14.2332 3.02195C14.8875 3.6763 15.2551 4.56378 15.2551 5.48917V13.7988C15.9058 14.3808 16.4006 15.1163 16.6944 15.9384C16.9882 16.7604 17.0717 17.6429 16.9373 18.5055C16.803 19.3681 16.4549 20.1834 15.925 20.8771C15.395 21.5708 14.6999 22.1209 13.903 22.4774C13.1061 22.8338 12.2327 22.9853 11.3623 22.918C10.4919 22.8506 9.65222 22.5667 8.91962 22.0919C8.18703 21.6171 7.58482 20.9666 7.16785 20.1997C6.75087 19.4327 6.53237 18.5736 6.53223 17.7006V17.7006ZM10.0217 5.48917V14.5792L9.44049 15.1001C8.91363 15.5712 8.54221 16.1911 8.3754 16.8778C8.20859 17.5646 8.25426 18.2858 8.50635 18.946C8.75844 19.6062 9.20508 20.1743 9.78714 20.5751C10.3692 20.9759 11.0593 21.1905 11.766 21.1905C12.4727 21.1905 13.1628 20.9759 13.7448 20.5751C14.3269 20.1743 14.7735 19.6062 15.0256 18.946C15.2777 18.2858 15.3234 17.5646 15.1566 16.8778C14.9898 16.1911 14.6183 15.5712 14.0915 15.1001L13.5109 14.5792V5.48917C13.5109 5.02643 13.3271 4.58265 12.9999 4.25545C12.6727 3.92825 12.2289 3.74443 11.7661 3.74443C11.3034 3.74443 10.8596 3.92825 10.5324 4.25545C10.2052 4.58265 10.0214 5.02643 10.0214 5.48917H10.0217ZM9.14926 17.7006C9.14973 17.1597 9.3177 16.6323 9.63009 16.1907C9.94248 15.7491 10.384 15.4152 10.8938 15.2347V13.2682H12.6384V15.2347C13.091 15.3945 13.4908 15.6758 13.7943 16.0476C14.0978 16.4194 14.2932 16.8676 14.3591 17.343C14.4251 17.8184 14.359 18.3027 14.1682 18.7431C13.9774 19.1835 13.6692 19.563 13.2772 19.84C12.8853 20.117 12.4247 20.2809 11.9459 20.3138C11.467 20.3466 10.9884 20.2472 10.5623 20.0264C10.1362 19.8055 9.77895 19.4718 9.52974 19.0616C9.28054 18.6514 9.14891 18.1806 9.14926 17.7006V17.7006Z" fill="white"/>
</svg>
