<svg width="24" height="24" viewBox="0 0 24 24" fill="none" xmlns="http://www.w3.org/2000/svg">
<path d="M18.8809 14.4279C19.468 14.4279 20.0309 14.1947 20.446 13.7796C20.8611 13.3645 21.0943 12.8015 21.0943 12.2145C21.0943 11.6275 20.8611 11.0645 20.446 10.6494C20.0309 10.2343 19.468 10.0011 18.8809 10.0011H18.8512C19.0297 9.58118 19.1202 9.12915 19.117 8.67292C19.1144 8.08186 18.9541 7.50221 18.6526 6.99381C18.3511 6.4854 17.9194 6.06668 17.402 5.78086C16.8847 5.49504 16.3004 5.35249 15.7095 5.36791C15.1187 5.38334 14.5426 5.55619 14.0409 5.86862C13.6326 4.87635 12.8925 4.05665 11.9469 3.54962C11.0013 3.04259 9.9089 2.87969 8.8565 3.08877C7.8041 3.29785 6.85697 3.86592 6.17699 4.69591C5.497 5.5259 5.12637 6.56628 5.12843 7.63924C5.12843 7.84598 5.1581 8.02304 5.1581 8.2001H5.1281C4.29849 8.20071 3.50305 8.5306 2.91652 9.11732C2.32999 9.70403 2.00035 10.4996 2 11.3292C2 12.1508 2.32637 12.9387 2.90732 13.5196C3.48826 14.1006 4.27619 14.427 5.09777 14.427L18.8809 14.4279Z" fill="white"/>
<path d="M22.186 20.0353H15.1919C15.1405 20.0338 15.0894 20.0426 15.0416 20.0612C14.9937 20.0799 14.9501 20.1079 14.9133 20.1436C14.8764 20.1794 14.8472 20.2222 14.8272 20.2695C14.8072 20.3168 14.7969 20.3676 14.7969 20.419C14.7969 20.4703 14.8072 20.5211 14.8272 20.5684C14.8472 20.6157 14.8764 20.6585 14.9133 20.6943C14.9501 20.73 14.9937 20.7581 15.0416 20.7767C15.0894 20.7953 15.1405 20.8041 15.1919 20.8026H22.1863C22.2872 20.8003 22.3833 20.7592 22.4546 20.6877C22.5259 20.6163 22.5668 20.52 22.5688 20.4191C22.5704 20.3684 22.5616 20.3178 22.543 20.2706C22.5243 20.2233 22.4962 20.1804 22.4604 20.1445C22.4245 20.1085 22.3816 20.0803 22.3345 20.0615C22.2873 20.0427 22.2367 20.0338 22.186 20.0353Z" fill="white"/>
<path d="M13.6864 20.0059H6.66265C6.56284 20.0088 6.46809 20.0505 6.39852 20.1221C6.32895 20.1938 6.29004 20.2897 6.29004 20.3895C6.29004 20.4894 6.32895 20.5853 6.39852 20.6569C6.46809 20.7286 6.56284 20.7703 6.66265 20.7732H13.6571C13.758 20.7709 13.8541 20.7298 13.9254 20.6583C13.9967 20.5869 14.0376 20.4906 14.0396 20.3897C14.0445 20.3407 14.0389 20.2912 14.0233 20.2445C14.0077 20.1978 13.9824 20.1549 13.9491 20.1186C13.9157 20.0824 13.8751 20.0536 13.8298 20.0342C13.7846 20.0147 13.7357 20.0051 13.6864 20.0059V20.0059Z" fill="white"/>
<path d="M10.7066 18.0586C10.6068 18.0615 10.512 18.1032 10.4425 18.1748C10.3729 18.2465 10.334 18.3424 10.334 18.4422C10.334 18.5421 10.3729 18.638 10.4425 18.7096C10.512 18.7813 10.6068 18.823 10.7066 18.8259H11.828C11.9278 18.823 12.0225 18.7813 12.0921 18.7096C12.1617 18.638 12.2006 18.5421 12.2006 18.4422C12.2006 18.3424 12.1617 18.2465 12.0921 18.1748C12.0225 18.1032 11.9278 18.0615 11.828 18.0586H10.7066Z" fill="white"/>
<path d="M9.40941 18.4416C9.40748 18.3402 9.36625 18.2435 9.2944 18.1719C9.22256 18.1003 9.12573 18.0594 9.02431 18.0578H4.80416C4.75284 18.0563 4.70174 18.0651 4.65389 18.0837C4.60604 18.1023 4.56241 18.1303 4.52558 18.1661C4.48875 18.2019 4.45947 18.2447 4.43947 18.292C4.41948 18.3393 4.40918 18.3901 4.40918 18.4414C4.40918 18.4928 4.41948 18.5436 4.43947 18.5909C4.45947 18.6382 4.48875 18.681 4.52558 18.7167C4.56241 18.7525 4.60604 18.7805 4.65389 18.7991C4.70174 18.8177 4.75284 18.8265 4.80416 18.8251H9.02431C9.12567 18.8235 9.22246 18.7826 9.29429 18.7111C9.36613 18.6395 9.4074 18.5429 9.40941 18.4416V18.4416Z" fill="white"/>
<path d="M19.7072 18.4423C19.7091 18.5434 19.7502 18.64 19.8218 18.7115C19.8933 18.7831 19.9898 18.8241 20.091 18.8261H21.2124C21.2637 18.8276 21.3148 18.8187 21.3627 18.8001C21.4105 18.7815 21.4542 18.7535 21.491 18.7177C21.5278 18.682 21.5571 18.6392 21.5771 18.5919C21.5971 18.5446 21.6074 18.4938 21.6074 18.4424C21.6074 18.3911 21.5971 18.3403 21.5771 18.293C21.5571 18.2457 21.5278 18.2029 21.491 18.1671C21.4542 18.1313 21.4105 18.1033 21.3627 18.0847C21.3148 18.0661 21.2637 18.0573 21.2124 18.0588H20.091C20.0402 18.0572 19.9896 18.066 19.9423 18.0846C19.895 18.1033 19.8521 18.1315 19.8161 18.1675C19.7802 18.2034 19.7519 18.2463 19.7332 18.2936C19.7145 18.3408 19.7056 18.3914 19.7072 18.4423V18.4423Z" fill="white"/>
<path d="M18.8235 18.4416C18.8215 18.3402 18.7803 18.2435 18.7085 18.1719C18.6366 18.1003 18.5398 18.0594 18.4384 18.0578H14.2182C14.1669 18.0563 14.1158 18.0651 14.068 18.0837C14.0201 18.1023 13.9765 18.1303 13.9396 18.1661C13.9028 18.2019 13.8735 18.2447 13.8535 18.292C13.8335 18.3393 13.8232 18.3901 13.8232 18.4414C13.8232 18.4928 13.8335 18.5436 13.8535 18.5909C13.8735 18.6382 13.9028 18.681 13.9396 18.7167C13.9765 18.7525 14.0201 18.7805 14.068 18.7991C14.1158 18.8177 14.1669 18.8265 14.2182 18.8251H18.4384C18.5397 18.8235 18.6365 18.7826 18.7084 18.7111C18.7802 18.6395 18.8215 18.5429 18.8235 18.4416V18.4416Z" fill="white"/>
<path d="M16.4334 16.4936C16.4324 16.4436 16.4215 16.3944 16.4012 16.3487C16.381 16.3031 16.3518 16.262 16.3153 16.2278C16.2813 16.1816 16.2368 16.1442 16.1855 16.1185C16.1342 16.0928 16.0776 16.0797 16.0202 16.0801H11.9165C11.8437 16.0818 11.7725 16.1021 11.7098 16.1391C11.6365 16.1669 11.5726 16.215 11.5256 16.2778C11.4786 16.3406 11.4504 16.4154 11.4443 16.4936C11.4463 16.5947 11.4873 16.6913 11.5589 16.7628C11.6304 16.8344 11.7269 16.8754 11.8281 16.8774H16.0483C16.1497 16.8758 16.2465 16.8349 16.3184 16.7633C16.3902 16.6917 16.4314 16.595 16.4334 16.4936V16.4936Z" fill="white"/>
<path d="M17.729 16.1095C17.6776 16.108 17.6265 16.1169 17.5787 16.1355C17.5308 16.1541 17.4872 16.1821 17.4504 16.2179C17.4136 16.2536 17.3843 16.2964 17.3643 16.3437C17.3443 16.391 17.334 16.4418 17.334 16.4932C17.334 16.5445 17.3443 16.5953 17.3643 16.6426C17.3843 16.6899 17.4136 16.7327 17.4504 16.7685C17.4872 16.8043 17.5308 16.8323 17.5787 16.8509C17.6265 16.8695 17.6776 16.8783 17.729 16.8768H18.821C18.9208 16.8739 19.0156 16.8322 19.0851 16.7606C19.1547 16.6889 19.1936 16.593 19.1936 16.4932C19.1936 16.3933 19.1547 16.2974 19.0851 16.2258C19.0156 16.1541 18.9208 16.1124 18.821 16.1095H17.729Z" fill="white"/>
<path d="M10.7352 16.464C10.7333 16.3629 10.6923 16.2663 10.6207 16.1948C10.5491 16.1232 10.4526 16.0822 10.3514 16.0802H3.2983C3.24698 16.0787 3.19588 16.0876 3.14803 16.1062C3.10018 16.1248 3.05655 16.1528 3.01972 16.1886C2.98289 16.2243 2.95361 16.2671 2.93361 16.3144C2.91362 16.3617 2.90332 16.4125 2.90332 16.4639C2.90332 16.5152 2.91362 16.566 2.93361 16.6133C2.95361 16.6606 2.98289 16.7034 3.01972 16.7392C3.05655 16.775 3.10018 16.803 3.14803 16.8216C3.19588 16.8402 3.24698 16.849 3.2983 16.8475H10.3514C10.4526 16.8456 10.549 16.8046 10.6206 16.7331C10.6921 16.6616 10.7332 16.5652 10.7352 16.464V16.464Z" fill="white"/>
</svg>
