<svg width="24" height="24" viewBox="0 0 24 24" fill="none" xmlns="http://www.w3.org/2000/svg">
<path fill-rule="evenodd" clip-rule="evenodd" d="M12.3479 3.72039C10.6591 3.72039 9.00828 4.22117 7.60411 5.1594C6.19994 6.09763 5.10552 7.43118 4.45924 8.9914C3.81297 10.5516 3.64387 12.2685 3.97332 13.9248C4.30277 15.5811 5.11598 17.1026 6.31012 18.2967C6.64604 18.6326 6.64604 19.1773 6.31011 19.5132C5.97418 19.8491 5.42953 19.8491 5.09361 19.5132C3.65888 18.0784 2.68182 16.2505 2.28598 14.2604C1.89015 12.2704 2.09332 10.2076 2.86981 8.33303C3.6463 6.45845 4.96123 4.85622 6.64831 3.72895C8.3354 2.60168 10.3189 2 12.3479 2C14.3769 2 16.3604 2.60168 18.0475 3.72895C19.7346 4.85622 21.0495 6.45845 21.826 8.33303C22.6025 10.2076 22.8057 12.2704 22.4098 14.2604C22.014 16.2505 21.0369 18.0784 19.6022 19.5132C19.2663 19.8491 18.7216 19.8491 18.3857 19.5132C18.0498 19.1773 18.0498 18.6326 18.3857 18.2967C19.5798 17.1026 20.393 15.5811 20.7225 13.9248C21.0519 12.2685 20.8828 10.5516 20.2366 8.9914C19.5903 7.43118 18.4959 6.09763 17.0917 5.1594C15.6875 4.22117 14.0367 3.72039 12.3479 3.72039Z" fill="white"/>
<path fill-rule="evenodd" clip-rule="evenodd" d="M12.2931 6.87208C12.7043 6.8706 13.0591 7.1604 13.1397 7.56366L15.1446 17.5936C15.2079 17.7926 15.2534 17.9966 15.2806 18.2032C15.3425 18.3219 15.3774 18.4569 15.3774 18.6C15.3774 18.9956 15.2995 19.3874 15.1481 19.753C14.9966 20.1185 14.7747 20.4507 14.4949 20.7304C14.2152 21.0102 13.883 21.2321 13.5175 21.3836C13.1519 21.535 12.7601 21.6129 12.3645 21.6129C11.9688 21.6129 11.577 21.535 11.2115 21.3836C10.8459 21.2321 10.5138 21.0102 10.234 20.7304C9.95425 20.4507 9.73232 20.1185 9.58091 19.753C9.42949 19.3874 9.35156 18.9956 9.35156 18.6V18.5656H10.2118L9.35184 18.5438C9.35978 18.2298 9.4155 17.919 9.51694 17.622L11.4515 7.56971C11.5292 7.16588 11.8819 6.87355 12.2931 6.87208ZM11.072 18.5778V18.6C11.072 18.7697 11.1054 18.9378 11.1703 19.0946C11.2353 19.2514 11.3305 19.3939 11.4505 19.5139C11.5705 19.634 11.713 19.7292 11.8699 19.7941C12.0267 19.8591 12.1947 19.8925 12.3645 19.8925C12.5342 19.8925 12.7023 19.8591 12.8591 19.7941C13.0159 19.7292 13.1584 19.634 13.2784 19.5139C13.3985 19.3939 13.4937 19.2514 13.5586 19.0946C13.5922 19.0136 13.6173 18.9297 13.6338 18.844C13.6337 18.8437 13.6335 18.8433 13.6334 18.843C13.6148 18.7871 13.6036 18.7348 13.597 18.6887C13.5937 18.6656 13.5915 18.6436 13.5901 18.6232C13.5894 18.6129 13.589 18.603 13.5886 18.5934C13.5885 18.5886 13.5884 18.5839 13.5883 18.5793L13.5883 18.5759C13.5802 18.4095 13.5491 18.2449 13.4959 18.087C13.4842 18.0523 13.4748 18.0169 13.4676 17.981L12.3122 12.2008L11.1941 18.0107C11.1852 18.0568 11.1726 18.1021 11.1563 18.1462C11.1052 18.2846 11.0767 18.4303 11.072 18.5778ZM14.4117 18.5656C14.4238 18.5656 14.436 18.5656 14.4484 18.5656H14.4117L14.4117 18.5656Z" fill="white"/>
</svg>
