<svg xmlns="http://www.w3.org/2000/svg" width="63" height="63" viewBox="0 0 63 63">
  <g id="ic_facebook" transform="translate(-5 -5)">
    <path id="Path_117723" data-name="Path 117723" d="M36.5,5A31.5,31.5,0,1,0,68,36.5,31.5,31.5,0,0,0,36.5,5Z" fill="#039be5"/>
    <path id="Path_117724" data-name="Path 117724" d="M33.227,39.717h8.152l1.28-8.281H33.225V26.91c0-3.44,1.124-6.491,4.342-6.491h5.171V13.192a43.924,43.924,0,0,0-6.461-.391c-7.582,0-12.026,4-12.026,13.126v5.509H16.457v8.281h7.794V62.478a31.564,31.564,0,0,0,4.712.39,31.707,31.707,0,0,0,4.264-.322Z" transform="translate(7.538 5.132)" fill="#fff"/>
  </g>
</svg>
