<svg xmlns="http://www.w3.org/2000/svg" width="63" height="63" viewBox="0 0 63 63">
  <g id="ic_pinterest" transform="translate(-4 -4)">
    <circle id="Ellipse_1447" data-name="Ellipse 1447" cx="31.5" cy="31.5" r="31.5" transform="translate(4 4)" fill="#e60023"/>
    <path id="Path_117725" data-name="Path 117725" d="M32.043,11.416c-13.6,0-20.814,9.127-20.814,19.062,0,4.621,2.459,10.372,6.394,12.2.6.278.916.158,1.053-.42.105-.439.636-2.578.875-3.573a.943.943,0,0,0-.218-.9A12.253,12.253,0,0,1,16.988,30.6c0-6.948,5.26-13.671,14.222-13.671,7.738,0,13.156,5.274,13.156,12.816,0,8.521-4.3,14.425-9.9,14.425A4.574,4.574,0,0,1,29.8,38.472c.891-3.744,2.61-7.783,2.61-10.487,0-2.418-1.3-4.437-3.985-4.437-3.161,0-5.7,3.269-5.7,7.65a11.37,11.37,0,0,0,.943,4.675s-3.122,13.2-3.694,15.658a30.117,30.117,0,0,0-.112,9.014h0c.711.279,1.421.557,2.156.785h0a35.1,35.1,0,0,0,3.916-8.257c.384-1.474,1.964-7.489,1.964-7.489,1.026,1.959,4.026,3.618,7.218,3.618,9.5,0,16.346-8.736,16.346-19.593C51.462,19.2,42.971,11.416,32.043,11.416Z" transform="translate(4.156 4.264)" fill="#fff"/>
  </g>
</svg>
