<svg width="24" height="24" viewBox="0 0 24 24" fill="none" xmlns="http://www.w3.org/2000/svg">
<path d="M10.6432 11.1602C9.69365 11.1602 9.13379 12.061 9.13379 13.2781C9.13379 14.4951 9.71815 15.3491 10.6432 15.3491C11.5927 15.3491 12.1274 14.4482 12.1274 13.2311C12.1526 12.1339 11.6169 11.1602 10.6432 11.1602Z" fill="white"/>
<path d="M20.502 13.8628H20.4775C20.6824 13.3946 20.7901 12.8897 20.794 12.3786C20.7943 11.3908 20.4021 10.4434 19.7039 9.74468C19.0057 9.04598 18.0585 8.65326 17.0707 8.65289C16.3706 8.65242 15.6855 8.85544 15.0988 9.23726C14.6426 8.12185 13.8138 7.1991 12.7537 6.62623C11.6935 6.05336 10.4674 5.86581 9.28446 6.09553C8.10149 6.32525 7.03476 6.95804 6.26603 7.88607C5.4973 8.8141 5.07412 9.97997 5.0686 11.185C5.07176 11.3968 5.08801 11.6082 5.11726 11.8181H5.0686C4.14397 11.8274 3.26022 12.2005 2.60861 12.8565C1.957 13.5126 1.58995 14.3989 1.58691 15.3236C1.58682 15.7808 1.67681 16.2335 1.85173 16.6559C2.02665 17.0783 2.28308 17.4621 2.60637 17.7854C2.92966 18.1087 3.31348 18.3652 3.73589 18.5401C4.15831 18.715 4.61105 18.805 5.06825 18.8049H20.502C21.1573 18.8049 21.7858 18.5445 22.2493 18.0811C22.7127 17.6177 22.973 16.9892 22.973 16.3339C22.973 15.6785 22.7127 15.05 22.2493 14.5866C21.7858 14.1232 21.1573 13.8628 20.502 13.8628V13.8628ZM10.5957 16.4678C8.74564 16.4678 7.67425 15.0802 7.67425 13.303C7.67425 11.4284 8.86714 10.0408 10.6931 10.0408C12.6163 10.0408 13.6387 11.477 13.6387 13.1818C13.638 15.2262 12.3961 16.4678 10.5957 16.4678ZM15.2934 17.7825C14.8643 17.788 14.4396 17.6964 14.0508 17.5147L14.27 16.7843C14.5507 16.9256 14.8572 17.0084 15.1709 17.0276C15.5606 17.0276 15.8267 16.8571 15.8267 16.6134C15.8267 16.2969 15.437 16.1509 15.0232 16.1509H14.7312V15.5182H14.999C15.3155 15.5182 15.7049 15.4209 15.7049 15.1285C15.7049 14.9339 15.5589 14.812 15.2178 14.812C14.9284 14.8198 14.6448 14.8948 14.3894 15.0312L14.1948 14.3754C14.5923 14.168 15.0369 14.0674 15.485 14.0834C16.3614 14.0834 16.8239 14.4976 16.8239 15.0084C16.8054 15.2073 16.7211 15.3942 16.5844 15.5398C16.4477 15.6853 16.2663 15.7811 16.069 15.812V15.8365C16.2993 15.8375 16.5206 15.9262 16.6879 16.0845C16.8552 16.2428 16.956 16.4588 16.9699 16.6887C16.9488 17.3207 16.291 17.7825 15.2934 17.7825Z" fill="white"/>
</svg>
