<svg width="24" height="24" viewBox="0 0 24 24" fill="none" xmlns="http://www.w3.org/2000/svg">
<path d="M12.0007 3C11.2663 3 10.5621 3.29168 10.0428 3.81088C9.52357 4.33007 9.23186 5.03426 9.23186 5.76851V11.1344L6.22398 13.3843H3V14.7685H6.46169C6.60909 14.7709 6.75327 14.7254 6.87263 14.6389L9.23085 12.865V13.7519C8.6039 14.3126 8.162 15.0505 7.96361 15.8678C7.76522 16.6851 7.8197 17.5434 8.11984 18.329C8.41997 19.1147 8.95162 19.7907 9.64442 20.2677C10.3372 20.7446 11.1585 21 11.9997 21C12.8408 21 13.6621 20.7446 14.3549 20.2677C15.0477 19.7907 15.5794 19.1147 15.8795 18.329C16.1796 17.5434 16.2341 16.6851 16.0357 15.8678C15.8373 15.0505 15.3954 14.3126 14.7685 13.7519V8.71123L17.776 6.46131H21V5.07706H17.4748C17.35 5.0887 17.2305 5.13346 17.1287 5.20671L14.7702 6.98058V5.76851C14.7702 5.40489 14.6985 5.04483 14.5593 4.70889C14.4201 4.37296 14.2161 4.06773 13.959 3.81064C13.7018 3.55355 13.3965 3.34964 13.0605 3.21055C12.7245 3.07146 12.3643 2.99991 12.0007 3V3ZM12.0007 4.38426C12.3676 4.38506 12.7193 4.53116 12.9787 4.79058C13.2382 5.05001 13.3843 5.40163 13.3851 5.76851V8.01843L10.6163 10.0952V5.76851C10.6171 5.40163 10.7632 5.05001 11.0226 4.79058C11.2821 4.53116 11.6338 4.38506 12.0007 4.38426V4.38426Z" fill="white"/>
</svg>
