<svg width="24" height="24" viewBox="0 0 24 24" fill="none" xmlns="http://www.w3.org/2000/svg">
<path d="M22 13.2978C21.9993 12.0434 21.5546 10.8406 20.7635 9.95363C19.9724 9.06664 18.8997 8.56799 17.7809 8.56721C17.0323 8.56861 16.2967 8.78717 15.6457 9.20163C15.1997 8.23387 14.5241 7.42289 13.6934 6.858C12.8627 6.29311 11.9091 5.99622 10.9375 6.00004C9.75561 5.99759 8.60644 6.43539 7.67049 7.24466C6.73454 8.05394 6.06484 9.18886 5.76655 10.4712C5.63913 10.4473 5.50991 10.4376 5.38078 10.4424C4.49399 10.4395 3.64188 10.8285 3.00913 11.5251C2.37637 12.2218 2.01395 13.1699 2.00039 14.1642C1.98684 15.1584 2.32325 16.1185 2.93672 16.8365C3.55019 17.5545 4.3913 17.9725 5.27776 18H17.961C19.0458 17.9539 20.0726 17.4384 20.8257 16.5616C21.5788 15.6849 21.9997 14.5151 22 13.2978Z" fill="white"/>
</svg>
