<svg width="24" height="24" viewBox="0 0 24 24" fill="none" xmlns="http://www.w3.org/2000/svg">
<path d="M12.925 4.33046C13.0306 4.23326 13.1043 4.10628 13.1361 3.96633C13.168 3.82638 13.1567 3.68004 13.1036 3.54669C12.8772 2.95914 12.5208 2.43039 12.0612 2L11.9022 2C11.4876 2.42534 11.1541 2.9227 10.918 3.46767C10.8486 3.60832 10.8258 3.76744 10.8529 3.92192C10.8801 4.0764 10.9558 4.21821 11.069 4.32676C11.189 4.45176 11.3329 4.55128 11.4922 4.61938C11.6515 4.68748 11.823 4.72275 11.9962 4.7231C12.1695 4.72344 12.341 4.68885 12.5006 4.62139C12.6602 4.55392 12.8045 4.45498 12.925 4.33046V4.33046Z" fill="white"/>
<path d="M3.59881 10.8772C2.98298 11.0889 2.43227 11.456 2 11.943L2 12.0624C2.43767 12.5339 2.97986 12.8963 3.583 13.1202C3.68328 13.1566 3.791 13.1677 3.89659 13.1525C4.00218 13.1372 4.10237 13.0961 4.18823 13.0328C4.33618 12.9271 4.45998 12.7911 4.55142 12.634C4.64287 12.4768 4.69987 12.302 4.71866 12.1211C4.73745 11.9403 4.71759 11.7575 4.66041 11.5849C4.60322 11.4123 4.51001 11.2538 4.38695 11.1199C4.29563 11.0044 4.17137 10.9193 4.03063 10.876C3.88989 10.8326 3.7393 10.833 3.59881 10.8772V10.8772Z" fill="white"/>
<path d="M5.21369 6.75701C5.25182 6.871 5.31933 6.97292 5.40941 7.0525C5.49949 7.13207 5.60897 7.18649 5.72679 7.21025C5.92065 7.24353 6.11956 7.23202 6.30828 7.1766C6.49701 7.12117 6.67056 7.0233 6.81564 6.89048C6.96073 6.75767 7.0735 6.59342 7.14534 6.41031C7.21718 6.2272 7.24617 6.03008 7.2301 5.83404C7.2207 5.71031 7.17902 5.59121 7.10922 5.48862C7.03943 5.38602 6.94396 5.30351 6.83234 5.24932C6.32225 5.02495 5.77507 4.89682 5.2184 4.87139C4.91579 4.85962 4.86434 4.92317 4.86838 5.32464C4.88821 5.45577 4.90805 5.68273 4.95983 5.90129C5.03044 6.1881 5.1219 6.47457 5.21369 6.75701Z" fill="white"/>
<path d="M5.77564 16.7788C5.66337 16.7939 5.55662 16.8367 5.465 16.9033C5.37338 16.97 5.29976 17.0583 5.25077 17.1604C5.03762 17.6539 4.90862 18.1795 4.86914 18.7155C4.86914 19.0894 4.95253 19.1809 5.29482 19.121C5.78808 19.0336 6.27327 18.9062 6.75442 18.7791C6.87282 18.7431 6.97861 18.6744 7.05954 18.5808C7.14047 18.4872 7.19322 18.3725 7.2117 18.2502C7.24288 18.053 7.22756 17.8512 7.16698 17.6609C7.1064 17.4706 7.00223 17.2972 6.86276 17.1543C6.7233 17.0114 6.55239 16.903 6.36365 16.8378C6.17491 16.7727 5.97356 16.7524 5.77564 16.7788Z" fill="white"/>
<path d="M18.2623 7.20605C18.364 7.18856 18.4602 7.14692 18.5425 7.08461C18.6249 7.0223 18.6911 6.94115 18.7357 6.84796C18.9671 6.32717 19.0968 5.7669 19.1176 5.19737C19.1257 4.91493 19.0659 4.86719 18.7158 4.86719C18.1804 4.90816 17.6552 5.0358 17.1607 5.24512C17.0694 5.28641 16.989 5.34862 16.9262 5.42672C16.8633 5.50481 16.8198 5.5966 16.799 5.69467C16.7568 5.89781 16.765 6.10818 16.8229 6.30743C16.8807 6.50668 16.9864 6.68875 17.1307 6.83779C17.275 6.98683 17.4536 7.0983 17.6509 7.16249C17.8482 7.22668 18.0582 7.24163 18.2626 7.20605H18.2623Z" fill="white"/>
<path d="M18.7849 17.2761C18.7414 17.114 18.6414 16.9727 18.5028 16.8778C18.3642 16.783 18.1963 16.7408 18.0294 16.759C17.7405 16.7703 17.4631 16.8754 17.2393 17.0584C17.0154 17.2414 16.8572 17.4922 16.7887 17.7731C16.7516 17.8766 16.7364 17.9866 16.7441 18.0962C16.7519 18.2059 16.7823 18.3127 16.8335 18.4099C16.8848 18.5071 16.9557 18.5927 17.0417 18.661C17.1277 18.7294 17.2271 18.7791 17.3334 18.807C17.7817 18.941 18.2389 19.0434 18.7015 19.1133C19.0515 19.1692 19.1827 19.0417 19.1232 18.6957C19.0396 18.2161 18.9267 17.742 18.7849 17.2761V17.2761Z" fill="white"/>
<path d="M21.8698 11.7878C21.4517 11.389 20.9563 11.0801 20.4143 10.88C20.3145 10.8461 20.2077 10.8379 20.1039 10.8561C19.8571 10.916 19.6388 11.0598 19.4865 11.263C19.3341 11.4662 19.2571 11.716 19.2687 11.9697C19.2663 12.2694 19.3627 12.5615 19.5431 12.8009C19.6361 12.9389 19.7707 13.0437 19.9272 13.1002C20.0838 13.1566 20.2542 13.1618 20.4139 13.1149C20.9519 12.9058 21.4446 12.5953 21.8655 12.2004C22.0447 12.0329 22.0447 11.9586 21.8698 11.7878Z" fill="white"/>
<path d="M11.8827 19.2725C11.7058 19.3113 11.5327 19.3659 11.3655 19.4356C11.1762 19.5118 11.0222 19.6561 10.9339 19.8401C10.8456 20.0241 10.8294 20.2345 10.8884 20.4298C11.0877 20.9504 11.3844 21.4282 11.7626 21.8376C11.9644 22.0525 12.0316 22.0525 12.2334 21.8417C12.6137 21.4254 12.9143 20.9429 13.1204 20.4181C13.1535 20.3251 13.1631 20.2254 13.1483 20.1279C13.0756 19.6343 12.5747 19.2681 11.8827 19.2725Z" fill="white"/>
<path d="M12.0176 5.67486C10.7679 5.66983 9.54479 6.03532 8.50275 6.72517C7.46071 7.41501 6.64653 8.39824 6.16308 9.55063C5.67963 10.703 5.5486 11.9728 5.78655 13.1997C6.0245 14.4265 6.62075 15.5553 7.49996 16.4434C8.37918 17.3314 9.5019 17.939 10.7263 18.1893C11.9507 18.4395 13.2217 18.3213 14.3789 17.8494C15.5361 17.3775 16.5275 16.5733 17.2277 15.5382C17.928 14.5032 18.3058 13.2838 18.3133 12.0341C18.3179 11.203 18.1587 10.3792 17.8448 9.60971C17.5308 8.84021 17.0683 8.14015 16.4836 7.54954C15.8988 6.95894 15.2035 6.48937 14.4372 6.1677C13.6709 5.84603 12.8487 5.67855 12.0176 5.67486ZM11.7035 12.5677C11.674 12.9593 11.4971 13.3252 11.2085 13.5916C10.92 13.858 10.5412 14.0052 10.1485 14.0034C9.75924 14.0196 9.37841 13.8873 9.08307 13.6333C8.78772 13.3793 8.59994 13.0226 8.55772 12.6353C8.49417 11.7681 8.54191 10.8933 8.54191 9.99853H9.21439C9.34888 9.99853 9.33375 10.094 9.33375 10.1774V12.2254C9.33375 12.3169 9.33779 12.4124 9.34552 12.5038C9.37015 12.6982 9.46659 12.8764 9.6159 13.0033C9.76521 13.1303 9.95659 13.1968 10.1524 13.1898C10.3483 13.1828 10.5344 13.1028 10.6743 12.9655C10.8142 12.8283 10.8976 12.6437 10.9083 12.448C10.9201 11.7201 10.9124 10.9924 10.9124 10.2645V10.0123H11.6918C11.7035 10.0321 11.7197 10.0443 11.7197 10.056C11.7153 10.8848 11.7473 11.7271 11.7029 12.5677H11.7035ZM15.4102 10.1972C15.0126 11.4023 14.6175 12.6087 14.225 13.8165C14.221 13.8468 14.2107 13.876 14.1949 13.9021C14.179 13.9283 14.1579 13.9509 14.1329 13.9685C14.1079 13.986 14.0795 13.9982 14.0495 14.0042C14.0195 14.0103 13.9886 14.01 13.9587 14.0034C13.7637 13.9876 13.5132 14.0552 13.382 13.9597C13.2509 13.8642 13.2311 13.6097 13.1672 13.4218C12.8173 12.3599 12.4686 11.2981 12.1212 10.2362C12.0973 10.1646 12.0774 10.089 12.0495 9.98978C12.3437 9.98978 12.6063 9.98171 12.8689 9.99785C12.9207 10.0019 12.9923 10.0987 13.0122 10.166C13.2428 10.9178 13.4695 11.6733 13.6961 12.4248C13.7096 12.4682 13.7255 12.5107 13.7438 12.5522C13.7572 12.5529 13.7706 12.5515 13.7835 12.5482C13.9146 12.1067 14.0498 11.6612 14.1813 11.2197C14.2885 10.8657 14.4002 10.512 14.4953 10.1539C14.498 10.1265 14.5065 10.1 14.5201 10.0762C14.5338 10.0523 14.5523 10.0316 14.5746 10.0154C14.5968 9.99928 14.6222 9.988 14.6491 9.98236C14.676 9.97672 14.7038 9.97684 14.7307 9.98272C14.9694 9.99449 15.2041 9.98676 15.4704 9.98676C15.4459 10.0775 15.4301 10.1371 15.4099 10.1969L15.4102 10.1972Z" fill="white"/>
</svg>
