<svg width="24" height="24" viewBox="0 0 24 24" fill="none" xmlns="http://www.w3.org/2000/svg">
<path d="M2.77644 13.6793H21.3817C21.5406 13.6771 21.6924 13.6129 21.8048 13.5005C21.9172 13.3881 21.9813 13.2362 21.9834 13.0773V13.0773C21.9812 12.9184 21.9171 12.7666 21.8047 12.6543C21.6924 12.5419 21.5406 12.4778 21.3817 12.4756H2.77644C2.61755 12.4778 2.46578 12.5419 2.35341 12.6543C2.24104 12.7666 2.17694 12.9184 2.17474 13.0773V13.0773C2.17687 13.2362 2.24094 13.3881 2.35332 13.5005C2.46569 13.6129 2.6175 13.6771 2.77644 13.6793Z" fill="white"/>
<path d="M7.28985 11.0461C7.87944 10.3502 8.61289 9.79026 9.43966 9.40501C10.2664 9.01975 11.1669 8.81828 12.079 8.81447C12.9921 8.81268 13.8943 9.01166 14.7219 9.3973C15.5496 9.78295 16.2823 10.3458 16.8682 11.0461H7.28985Z" fill="white"/>
<path d="M7.16442 15.9103H16.9927C17.0688 15.9117 17.1444 15.8977 17.2149 15.8693C17.2855 15.8409 17.3497 15.7985 17.4035 15.7448C17.4574 15.6911 17.4999 15.627 17.5286 15.5565C17.5572 15.4861 17.5714 15.4105 17.5702 15.3344V15.3344C17.5716 15.2582 17.5576 15.1825 17.5291 15.1118C17.5005 15.0411 17.458 14.9769 17.4041 14.923C17.3502 14.8691 17.286 14.8266 17.2153 14.7981C17.1446 14.7695 17.0689 14.7555 16.9927 14.7569H7.1394C7.06318 14.7555 6.98746 14.7695 6.91677 14.7981C6.84608 14.8266 6.78187 14.8691 6.72797 14.923C6.67406 14.9769 6.63158 15.0411 6.60304 15.1118C6.57451 15.1825 6.56051 15.2582 6.56189 15.3344V15.3344C6.56937 15.4894 6.63605 15.6355 6.74818 15.7427C6.86031 15.8498 7.00932 15.9098 7.16442 15.9103V15.9103Z" fill="white"/>
<path d="M8.79542 18.016H15.3638C15.4334 18.0177 15.5027 18.0053 15.5673 17.9794C15.6319 17.9536 15.6907 17.9149 15.7399 17.8657C15.7891 17.8164 15.8279 17.7577 15.8538 17.6931C15.8796 17.6285 15.8921 17.5593 15.8905 17.4897C15.8922 17.4201 15.8797 17.3508 15.8538 17.2861C15.828 17.2215 15.7892 17.1628 15.74 17.1135C15.6908 17.0643 15.632 17.0255 15.5674 16.9997C15.5027 16.9738 15.4335 16.9613 15.3638 16.963H8.7693C8.69968 16.9613 8.63044 16.9738 8.56578 16.9997C8.50112 17.0255 8.44238 17.0643 8.39314 17.1135C8.34389 17.1628 8.30516 17.2215 8.2793 17.2861C8.25343 17.3508 8.24097 17.4201 8.24267 17.4897C8.24919 17.6317 8.31033 17.7658 8.41332 17.8639C8.51631 17.962 8.65321 18.0165 8.79542 18.016Z" fill="white"/>
<path d="M10.775 19.7966H13.3834C13.453 19.7983 13.5222 19.7858 13.5869 19.7599C13.6516 19.7341 13.7103 19.6953 13.7595 19.6461C13.8088 19.5969 13.8475 19.5381 13.8734 19.4735C13.8992 19.4088 13.9117 19.3396 13.91 19.2699V19.2699C13.9117 19.2003 13.8992 19.1311 13.8734 19.0664C13.8475 19.0018 13.8088 18.943 13.7595 18.8938C13.7103 18.8445 13.6516 18.8058 13.5869 18.7799C13.5222 18.7541 13.453 18.7416 13.3834 18.7433H10.775C10.7054 18.7416 10.6361 18.7541 10.5715 18.7799C10.5068 18.8058 10.4481 18.8445 10.3988 18.8938C10.3496 18.943 10.3108 19.0018 10.285 19.0664C10.2591 19.1311 10.2467 19.2003 10.2484 19.2699C10.2534 19.408 10.3105 19.539 10.4082 19.6367C10.5059 19.7344 10.6369 19.7915 10.775 19.7966V19.7966Z" fill="white"/>
<path d="M18.423 11.0458L19.7267 10.795C19.8721 10.7668 20.0007 10.6828 20.0849 10.561C20.1692 10.4392 20.2024 10.2893 20.1775 10.1433V10.1433C20.1493 9.99801 20.0653 9.86954 19.9436 9.78531C19.822 9.70109 19.6722 9.6678 19.5263 9.69256L18.2225 9.94336C18.0771 9.97145 17.9485 10.0553 17.8642 10.177C17.7798 10.2987 17.7465 10.4486 17.7712 10.5946C17.8055 10.7367 17.8909 10.8612 18.011 10.9444C18.1312 11.0277 18.2779 11.0638 18.423 11.0458V11.0458Z" fill="white"/>
<path d="M16.5678 8.41301L17.3703 7.03415C17.4567 6.87711 17.4788 6.69267 17.4321 6.51963C17.3853 6.34658 17.2732 6.19842 17.1195 6.1063V6.1063C16.9624 6.01988 16.778 5.99772 16.6049 6.0445C16.4319 6.09127 16.2837 6.20333 16.1916 6.3571L15.3894 7.73706C15.303 7.89411 15.2809 8.07854 15.3276 8.25159C15.3744 8.42463 15.4865 8.57279 15.6402 8.66492C15.7174 8.71053 15.8028 8.74021 15.8916 8.75222C15.9804 8.76423 16.0707 8.75832 16.1572 8.73484C16.2437 8.71136 16.3246 8.67078 16.3951 8.6155C16.4656 8.56022 16.5243 8.49137 16.5678 8.41301V8.41301Z" fill="white"/>
<path d="M5.73534 11.0459L4.43155 10.7951C4.28601 10.7671 4.15726 10.6831 4.0729 10.5612C3.98855 10.4393 3.95529 10.2892 3.98028 10.1431C4.00855 9.99778 4.09257 9.86928 4.21437 9.7851C4.33618 9.70091 4.48608 9.66774 4.63203 9.69266L5.93581 9.94346C6.08109 9.97168 6.20956 10.0556 6.29379 10.1773C6.37801 10.299 6.4113 10.4488 6.38654 10.5947V10.5947C6.35227 10.7367 6.26698 10.8611 6.1469 10.9443C6.02682 11.0276 5.88034 11.0637 5.73534 11.0459V11.0459Z" fill="white"/>
<path d="M7.59129 8.41329L6.78884 7.03415C6.70242 6.87711 6.68027 6.69267 6.72704 6.51963C6.77382 6.34658 6.88587 6.19842 7.03964 6.1063V6.1063C7.19669 6.01988 7.38113 5.99772 7.55417 6.0445C7.72721 6.09127 7.87538 6.20333 7.9675 6.3571L8.76968 7.76153C8.8561 7.91858 8.87825 8.10302 8.83148 8.27606C8.7847 8.44911 8.67265 8.59727 8.51888 8.68939V8.68939C8.3584 8.77136 8.17253 8.78841 7.99982 8.737C7.82711 8.68559 7.68082 8.56967 7.59129 8.41329V8.41329Z" fill="white"/>
<path d="M12.9824 7.10918V4.67706C12.9828 4.58805 12.9655 4.49984 12.9316 4.41753C12.8977 4.33522 12.8479 4.26044 12.7849 4.1975C12.722 4.13456 12.6472 4.0847 12.5649 4.0508C12.4826 4.01691 12.3944 3.99964 12.3054 4.00001V4.00001C12.2163 3.99964 12.1281 4.01691 12.0458 4.0508C11.9635 4.0847 11.8887 4.13456 11.8258 4.1975C11.7629 4.26044 11.713 4.33522 11.6791 4.41753C11.6452 4.49984 11.6279 4.58805 11.6283 4.67706V7.10918C11.6279 7.19819 11.6452 7.2864 11.6791 7.3687C11.713 7.45101 11.7629 7.5258 11.8258 7.58874C11.8887 7.65168 11.9635 7.70154 12.0458 7.73543C12.1281 7.76933 12.2163 7.7866 12.3054 7.78623V7.78623C12.3944 7.7866 12.4826 7.76933 12.5649 7.73543C12.6472 7.70154 12.722 7.65168 12.7849 7.58874C12.8479 7.5258 12.8977 7.45101 12.9316 7.3687C12.9655 7.2864 12.9828 7.19819 12.9824 7.10918V7.10918Z" fill="white"/>
</svg>
