<svg width="24" height="24" viewBox="0 0 24 24" fill="none" xmlns="http://www.w3.org/2000/svg">
<path d="M7 17.698C6.99902 16.9614 7.15394 16.233 7.45457 15.5607C7.7552 14.8883 8.19474 14.2872 8.74429 13.7968V5.48857C8.74429 4.56335 9.11184 3.67601 9.76607 3.02178C10.4203 2.36755 11.3076 2 12.2329 2C13.1581 2 14.0454 2.36755 14.6997 3.02178C15.3539 3.67601 15.7214 4.56335 15.7214 5.48857V13.7968C16.372 14.3787 16.8667 15.1141 17.1605 15.936C17.4542 16.7579 17.5377 17.6403 17.4033 18.5027C17.269 19.3651 16.921 20.1803 16.3911 20.8739C15.8613 21.5675 15.1663 22.1175 14.3695 22.4739C13.5728 22.8303 12.6995 22.9817 11.8293 22.9144C10.959 22.8471 10.1195 22.5632 9.38699 22.0885C8.65452 21.6138 8.05242 20.9634 7.63551 20.1966C7.21861 19.4297 7.00014 18.5708 7 17.698V17.698ZM10.4886 5.48857V14.577L9.90777 15.0979C9.3811 15.5688 9.00983 16.1886 8.84312 16.8751C8.6764 17.5617 8.72208 18.2827 8.97413 18.9427C9.22617 19.6027 9.67269 20.1707 10.2546 20.5713C10.8365 20.972 11.5264 21.1865 12.2329 21.1865C12.9394 21.1865 13.6292 20.972 14.2111 20.5713C14.793 20.1707 15.2396 19.6027 15.4916 18.9427C15.7436 18.2827 15.7893 17.5617 15.6226 16.8751C15.4559 16.1886 15.0846 15.5688 14.558 15.0979L13.9772 14.577V5.48857C13.9772 5.02592 13.7934 4.58221 13.4662 4.25507C13.1391 3.92792 12.6954 3.74413 12.2327 3.74413C11.7701 3.74413 11.3263 3.92792 10.9992 4.25507C10.6721 4.58221 10.4883 5.02592 10.4883 5.48857H10.4886ZM9.61628 17.698C9.61627 17.1567 9.78403 16.6288 10.0965 16.1869C10.4089 15.745 10.8506 15.4107 11.3609 15.2302V8.97715H13.1049V15.2324C13.5573 15.3923 13.9571 15.6734 14.2605 16.0452C14.564 16.417 14.7593 16.865 14.8253 17.3403C14.8912 17.8157 14.8252 18.3 14.6344 18.7403C14.4436 19.1806 14.1354 19.56 13.7435 19.8369C13.3516 20.1139 12.8912 20.2778 12.4124 20.3106C11.9337 20.3435 11.4551 20.2441 11.0291 20.0233C10.603 19.8025 10.2459 19.4688 9.9967 19.0587C9.74753 18.6486 9.61593 18.1778 9.61628 17.698V17.698Z" fill="white"/>
</svg>
