<svg width="24" height="24" viewBox="0 0 24 24" fill="none" xmlns="http://www.w3.org/2000/svg">
<path d="M11.8382 5.0344C13.8726 8.65946 16.3511 13.8013 16.24 15.7246C16.1649 16.9972 15.6057 18.1927 14.6771 19.066C13.7485 19.9393 12.5209 20.4242 11.2461 20.4211H10.9498C10.1087 20.3674 9.29481 20.1021 8.58358 19.6499C7.87236 19.1978 7.28683 18.5733 6.8813 17.8345C7.10088 17.8773 7.32361 17.902 7.54724 17.9083H7.8802C9.30919 17.9011 10.6818 17.3502 11.7193 16.3675C12.7568 15.3848 13.3812 14.044 13.4658 12.6175C13.5027 12.1365 13.5769 10.6939 11.1723 5.95912C11.3942 5.66308 11.616 5.33044 11.8382 5.0344M11.949 3C11.949 3 11.0243 4.22077 9.87606 5.9222C11.0227 8.14154 12.4284 11.1369 12.3545 12.5806C12.2845 13.7206 11.783 14.7912 10.9518 15.5746C10.1207 16.358 9.02237 16.7955 7.8802 16.798H7.62109C6.746 16.7632 5.90439 16.4523 5.2168 15.9099C5.33602 17.3765 5.98242 18.7502 7.03641 19.7769C8.09039 20.8036 9.4806 21.4138 10.9498 21.4945H11.2834C12.8447 21.4929 14.3463 20.8945 15.4809 19.8219C16.6155 18.7494 17.2973 17.2837 17.3866 15.7249C17.5346 12.4325 11.949 3 11.949 3Z" fill="white"/>
<path d="M8.10204 6.43967C9.76655 9.50989 10.5067 11.693 10.4694 12.3213C10.4292 13.0009 10.1312 13.6395 9.63627 14.1069C9.14134 14.5743 8.48675 14.8353 7.806 14.8367H7.6596C6.94498 14.7932 6.2763 14.4699 5.79852 13.9367C5.32075 13.4035 5.07239 12.7034 5.10729 11.9884C5.14421 11.3597 6.10619 9.28802 8.10366 6.43967M8.25006 4.40527C8.25006 4.40527 4.14402 9.84286 4.03195 11.9521C3.99843 12.4486 4.06414 12.9467 4.22526 13.4175C4.38638 13.8884 4.63968 14.3223 4.97036 14.6942C5.30105 15.066 5.70249 15.3683 6.15126 15.5833C6.60003 15.7983 7.08713 15.9217 7.58413 15.9464H7.806C8.77737 15.9418 9.71083 15.5689 10.418 14.9029C11.1252 14.237 11.5534 13.3276 11.6163 12.3582C11.7271 10.2497 8.25006 4.40527 8.25006 4.40527Z" fill="white"/>
<path d="M16.4986 5.33173C17.6083 7.40467 18.2373 9.06789 18.2001 9.5858C18.1664 9.97415 18.0256 10.3455 17.7933 10.6585C17.2014 9.19495 16.5346 7.76273 15.7958 6.36755C16.0549 5.99766 16.2768 5.6647 16.4986 5.33108M16.611 3.25879C16.611 3.25879 15.5014 4.73835 14.5381 6.32901C15.4997 8.21442 16.611 10.472 17.2384 12.3956C17.8143 12.2043 18.3196 11.8448 18.6891 11.3634C19.0586 10.8821 19.2754 10.301 19.3114 9.69527C19.4208 7.99352 16.611 3.25879 16.611 3.25879Z" fill="white"/>
<path d="M5.25405 10.4355H10.4322L11.172 12.285L10.6171 13.9495L8.76769 15.4291H6.54867L5.439 13.9495L4.69922 11.7311L5.25405 10.4355Z" fill="white"/>
<path d="M12.8363 10.9902H15.4255L16.1653 13.2096L16.5352 16.5386L15.0557 19.1278L11.7266 20.9773H9.50698L7.65752 19.4977L6.54785 17.6486L7.65752 17.2787L10.4317 17.0938L11.9113 15.2443L13.0213 12.2858L12.8363 10.9902Z" fill="white"/>
<path d="M16.3516 7.8457H18.201L18.5709 8.58548L18.7559 9.88107L18.386 10.9907L17.6472 11.3597L16.5375 9.8801L16.3516 7.8457Z" fill="white"/>
</svg>
