<svg width="24" height="24" viewBox="0 0 24 24" fill="none" xmlns="http://www.w3.org/2000/svg">
<path d="M12.0185 17.5323L5.50195 17.0667C5.62324 15.4122 6.36963 13.8659 7.58958 12.7417C8.80952 11.6176 10.4116 10.9998 12.0704 11.0139C13.7293 11.028 15.3206 11.6729 16.5213 12.8176C17.7219 13.9624 18.4419 15.5212 18.5351 17.1775L12.0185 17.5323Z" fill="white"/>
<path d="M21.616 19.2382H2.55431C2.48134 19.2389 2.40894 19.2251 2.34137 19.1975C2.2738 19.17 2.21241 19.1292 2.16079 19.0776C2.10918 19.026 2.06837 18.9647 2.04077 18.8971C2.01316 18.8295 1.99931 18.7572 2.00003 18.6842V18.6842C1.99927 18.6112 2.01309 18.5388 2.04067 18.4712C2.06826 18.4036 2.10906 18.3422 2.16068 18.2906C2.2123 18.2389 2.27371 18.1981 2.3413 18.1706C2.40889 18.143 2.48131 18.1292 2.55431 18.1299H21.616C21.689 18.1292 21.7614 18.143 21.8289 18.1706C21.8965 18.1983 21.9578 18.2391 22.0094 18.2907C22.061 18.3423 22.1018 18.4037 22.1293 18.4713C22.1569 18.5388 22.1707 18.6112 22.17 18.6842V18.6842C22.1707 18.7571 22.1568 18.8295 22.1293 18.897C22.1017 18.9646 22.0609 19.0259 22.0093 19.0775C21.9577 19.1291 21.8964 19.1699 21.8288 19.1974C21.7613 19.225 21.6889 19.2389 21.616 19.2382V19.2382Z" fill="white"/>
<path d="M3.86319 16.5771L2.60059 16.3334C2.45761 16.3059 2.33108 16.2235 2.24804 16.1039C2.16499 15.9842 2.13202 15.8369 2.15616 15.6933V15.6933C2.18429 15.5503 2.26729 15.4239 2.38741 15.3413C2.50752 15.2587 2.6552 15.2265 2.79882 15.2514L4.06141 15.4951C4.20444 15.5232 4.33078 15.6062 4.41337 15.7263C4.49596 15.8464 4.52825 15.9941 4.50332 16.1377V16.1377C4.47461 16.2798 4.39174 16.4051 4.27226 16.4871C4.15277 16.5691 4.00606 16.6014 3.86319 16.5771V16.5771Z" fill="white"/>
<path d="M5.59154 12.4331L3.35296 10.2608C3.24866 10.16 3.18795 10.0224 3.18382 9.87741C3.17969 9.73241 3.23247 9.59156 3.33087 9.48498V9.48498C3.43158 9.38068 3.56909 9.31991 3.71401 9.31567C3.85893 9.31142 3.99977 9.36403 4.10641 9.46225L6.34499 11.6121C6.4493 11.7129 6.51001 11.8506 6.51413 11.9956C6.51826 12.1406 6.46548 12.2814 6.36709 12.388V12.388C6.32011 12.4434 6.26238 12.4887 6.19739 12.5211C6.13239 12.5535 6.06149 12.5724 5.98898 12.5767C5.91647 12.5809 5.84385 12.5703 5.77554 12.5457C5.70722 12.521 5.64462 12.4827 5.59154 12.4331V12.4331Z" fill="white"/>
<path d="M20.0425 16.5757L21.3051 16.332C21.4481 16.3039 21.5744 16.2209 21.657 16.1008C21.7396 15.9807 21.7719 15.833 21.747 15.6894V15.6894C21.7189 15.5464 21.6359 15.42 21.5157 15.3374C21.3956 15.2548 21.2479 15.2225 21.1043 15.2475L19.8417 15.4912C19.6987 15.5193 19.5724 15.6023 19.4898 15.7224C19.4072 15.8425 19.3749 15.9902 19.3998 16.1338V16.1338C19.4336 16.2738 19.5179 16.3963 19.6365 16.4779C19.7551 16.5595 19.8997 16.5943 20.0425 16.5757Z" fill="white"/>
<path d="M18.4241 12.4116L20.7959 10.1073C20.9002 10.0065 20.9609 9.86891 20.965 9.72391C20.9692 9.57891 20.9164 9.43806 20.818 9.33148V9.33148C20.7172 9.22717 20.5796 9.16646 20.4346 9.16233C20.2896 9.15821 20.1487 9.21098 20.0421 9.30938L17.6703 11.6367C17.566 11.7375 17.5053 11.8751 17.5012 12.0201C17.4971 12.1651 17.5499 12.3059 17.6482 12.4125V12.4125C17.7521 12.5137 17.8914 12.5702 18.0364 12.5701C18.1814 12.5699 18.3205 12.513 18.4241 12.4116V12.4116Z" fill="white"/>
<path d="M11.5099 9.41905V5.73985C11.5072 5.5959 11.5616 5.45673 11.6613 5.35284C11.761 5.24895 11.8978 5.18881 12.0417 5.18557V5.18557C12.1147 5.18486 12.1871 5.1987 12.2546 5.22631C12.3222 5.25391 12.3836 5.29472 12.4352 5.34634C12.4867 5.39796 12.5275 5.45935 12.5551 5.52692C12.5826 5.59449 12.5965 5.66688 12.5957 5.73985V9.44115C12.5965 9.51412 12.5826 9.58651 12.5551 9.65408C12.5275 9.72165 12.4867 9.78304 12.4352 9.83466C12.3836 9.88628 12.3222 9.92708 12.2546 9.95469C12.1871 9.98229 12.1147 9.99614 12.0417 9.99542C11.897 9.98341 11.7621 9.91752 11.6636 9.8108C11.5651 9.70407 11.5102 9.56427 11.5099 9.41905Z" fill="white"/>
</svg>
