<svg xmlns="http://www.w3.org/2000/svg" width="63" height="63" viewBox="0 0 63 63">
  <g id="ic_linkedin" transform="translate(20993 -7719)">
    <circle id="Ellipse_1449" data-name="Ellipse 1449" cx="31.5" cy="31.5" r="31.5" transform="translate(-20993 7719)" fill="#3588d1"/>
    <path id="icons8-linkedin_2" d="M7.249,11.613h.038a3.183,3.183,0,0,0,3.327-3.307A3.172,3.172,0,0,0,7.326,5,3.182,3.182,0,0,0,4,8.307,3.163,3.163,0,0,0,7.249,11.613ZM4,13.818h6.613V32.923H4ZM33.393,20.8A6.975,6.975,0,0,0,20.9,16.525V13.818H14.287V32.923H20.9V21.9h0a2.939,2.939,0,1,1,5.879,0V32.923h6.613Z" transform="translate(-20980.195 7731.539)" fill="#fff"/>
  </g>
</svg>
