<svg xmlns="http://www.w3.org/2000/svg" xmlns:xlink="http://www.w3.org/1999/xlink" width="51.361" height="43.797" viewBox="0 0 51.361 43.797">
  <defs>
    <linearGradient id="linear-gradient" x1="0.5" y1="0.052" x2="0.5" y2="1.108" gradientUnits="objectBoundingBox">
      <stop offset="0" stop-color="#fff23a"/>
      <stop offset="0.122" stop-color="#f9c639"/>
      <stop offset="0.261" stop-color="#f49d39"/>
      <stop offset="0.402" stop-color="#ef7a39"/>
      <stop offset="0.546" stop-color="#ec6039"/>
      <stop offset="0.691" stop-color="#e94d39"/>
      <stop offset="0.841" stop-color="#e84139"/>
      <stop offset="1" stop-color="#e83e39"/>
    </linearGradient>
    <linearGradient id="linear-gradient-2" x1="0.5" y1="-0.494" x2="0.5" y2="1.849" xlink:href="#linear-gradient"/>
    <linearGradient id="linear-gradient-3" x1="0.085" y1="-0.41" x2="0.904" y2="1.282" gradientUnits="objectBoundingBox">
      <stop offset="0" stop-color="#fef33a"/>
      <stop offset="1" stop-color="#e84939"/>
    </linearGradient>
  </defs>
  <g id="tt24h_doc" transform="translate(-104.083 -67.569)">
    <g id="Group_59" data-name="Group 59" transform="translate(116.083 67.569)">
      <g id="Group_47" data-name="Group 47" transform="translate(0 0)">
        <path id="Path_109866" data-name="Path 109866" d="M-1255.835,387.535a8.242,8.242,0,0,1-8.242-8.242,8.242,8.242,0,0,1,8.242-8.242,8.2,8.2,0,0,1,4.246,1.177q-.225-.19-.462-.367l1.4-5.822-3.638,4.587c-.348-.134-1.032-.341-1.032-.341l-1.726-7.812-1.674,7.579-.453.061-2.885-4.708.62,5.37a9.418,9.418,0,0,0-1.248.657l-6.23-3.975,3.872,6.069q-.272.338-.513.7l-5.016-1.2,4.015,3.184a9.381,9.381,0,0,0-.439,1.668l-6.788,1.5,6.753,1.492.179.9-4.354,2.668,5.16-.6a9.465,9.465,0,0,0,1,1.525l-3.755,5.885,6.021-3.842.457.276-1.265,5.268,3.468-4.373a9.409,9.409,0,0,0,1.634.284l1.6,7.257,1.667-7.546a9.45,9.45,0,0,0,4.728-3A8.209,8.209,0,0,1-1255.835,387.535Z" transform="translate(1273.789 -362.472)" fill="url(#linear-gradient)"/>
        <path id="Path_109867" data-name="Path 109867" d="M-1043.031,560.935a6.76,6.76,0,0,1,3.8,1.161,7.546,7.546,0,0,0-5.066-1.944,7.574,7.574,0,0,0-7.574,7.574,7.574,7.574,0,0,0,7.574,7.574,7.546,7.546,0,0,0,5.066-1.944,6.76,6.76,0,0,1-3.8,1.161,6.791,6.791,0,0,1-6.791-6.791A6.791,6.791,0,0,1-1043.031,560.935Z" transform="translate(1062.253 -550.905)" fill="url(#linear-gradient-2)"/>
      </g>
      <path id="Path_109868" data-name="Path 109868" d="M6812.907,1968.238h1.3l.34-1.92h-1.3l.907-5.141h-1.688c.274-1.64-1.171-3.553-3.964-2.652s-2.972,4.348-1.753,5.21l1.661-1.422a1.269,1.269,0,0,1,1.042-2.095c1.376,0,1.092,1.381.527,1.843-.265.279-1.757,1.578-3.35,2.92s-2.926,3.257-.448,3.257h4.8l-.394,2.23h1.925Zm-1.586-1.92h-3.53s3.4-2.408,4.186-3.711C6811.912,1962.969,6811.321,1966.318,6811.321,1966.318Z" transform="translate(-6787.001 -1946.866)" fill="#fff"/>
    </g>
    <g id="Group_58" data-name="Group 58" transform="translate(104.083 105.825)">
      <path id="Path_109877" data-name="Path 109877" d="M235.882-33.615a3.507,3.507,0,0,1-.119.435,2.058,2.058,0,0,1-.2.416,2.177,2.177,0,0,1-.327.4,2.981,2.981,0,0,1-.508.389l-1.208.708H235.3a.154.154,0,0,1,.131.062.18.18,0,0,1,.031.146l-.177.816a.246.246,0,0,1-.089.146.24.24,0,0,1-.158.062h-3.986a.165.165,0,0,1-.135-.062.172.172,0,0,1-.035-.146l.146-.662a.712.712,0,0,1,.1-.246.644.644,0,0,1,.215-.208l2.609-1.624a1.544,1.544,0,0,0,.25-.2,1.092,1.092,0,0,0,.15-.181.618.618,0,0,0,.077-.169q.023-.085.039-.162a.573.573,0,0,0,.015-.15.441.441,0,0,0-.046-.192.4.4,0,0,0-.162-.165.648.648,0,0,0-.331-.069.8.8,0,0,0-.362.073.98.98,0,0,0-.242.165.82.82,0,0,0-.15.189q-.054.1-.077.142a.306.306,0,0,1-.15.142.534.534,0,0,1-.2.035h-.947a.139.139,0,0,1-.112-.05.131.131,0,0,1-.027-.119,2.812,2.812,0,0,1,.242-.643,2.066,2.066,0,0,1,.454-.581,2.223,2.223,0,0,1,.716-.423,2.908,2.908,0,0,1,1.027-.162,2.059,2.059,0,0,1,.847.162,1.679,1.679,0,0,1,.593.427,1.441,1.441,0,0,1,.315.6A1.5,1.5,0,0,1,235.882-33.615Zm2.955,3.579a.165.165,0,0,1-.135-.062.172.172,0,0,1-.035-.146l.169-.785h-2.578a.165.165,0,0,1-.135-.062.155.155,0,0,1-.027-.146l.169-.816a.755.755,0,0,1,.169-.331l2.917-2.9a.619.619,0,0,1,.154-.112.408.408,0,0,1,.162-.027h1.316a.165.165,0,0,1,.135.062.172.172,0,0,1,.035.146l-.631,2.955h.585a.154.154,0,0,1,.131.062.18.18,0,0,1,.031.146l-.169.816a.288.288,0,0,1-.1.146.24.24,0,0,1-.158.062h-.585l-.169.785A.246.246,0,0,1,240-30.1a.241.241,0,0,1-.158.062Zm.3-2.224.3-1.416-1.416,1.416Zm7.973-3.163a.165.165,0,0,1,.135.062.172.172,0,0,1,.035.146l-1.062,4.971a.246.246,0,0,1-.089.146.24.24,0,0,1-.158.062h-1.008a.164.164,0,0,1-.135-.062.172.172,0,0,1-.035-.146l.4-1.885h-1.708l-.4,1.885A.245.245,0,0,1,243-30.1a.24.24,0,0,1-.158.062h-1.008a.169.169,0,0,1-.135-.058.174.174,0,0,1-.035-.15l1.062-4.971a.246.246,0,0,1,.089-.146.24.24,0,0,1,.158-.062h1.008a.165.165,0,0,1,.135.062.172.172,0,0,1,.035.146l-.4,1.855h1.708l.4-1.855a.245.245,0,0,1,.089-.146.24.24,0,0,1,.158-.062Z" transform="translate(-195.922 35.5)" fill="url(#linear-gradient-3)"/>
      <path id="Path_109878" data-name="Path 109878" d="M8.469-35.361a.172.172,0,0,1,.035.146l-.177.816a.24.24,0,0,1-.092.146.255.255,0,0,1-.162.062H6.719L5.88-30.244a.246.246,0,0,1-.089.146.24.24,0,0,1-.158.062H4.625a.165.165,0,0,1-.135-.062.172.172,0,0,1-.035-.146l.839-3.948H3.94a.154.154,0,0,1-.131-.062.18.18,0,0,1-.031-.146l.177-.816a.246.246,0,0,1,.089-.146.24.24,0,0,1,.158-.062S8.436-35.4,8.469-35.361Zm5.106-.062a.164.164,0,0,1,.135.062.172.172,0,0,1,.035.146l-1.062,4.971a.246.246,0,0,1-.089.146.24.24,0,0,1-.158.062H11.428a.165.165,0,0,1-.135-.062.172.172,0,0,1-.035-.146l.4-1.885H9.951l-.4,1.885a.246.246,0,0,1-.089.146.24.24,0,0,1-.158.062H8.3a.169.169,0,0,1-.135-.058.174.174,0,0,1-.035-.15l1.062-4.971a.246.246,0,0,1,.089-.146.24.24,0,0,1,.158-.062h1.008a.164.164,0,0,1,.135.062.172.172,0,0,1,.035.146l-.4,1.855h1.708l.4-1.855a.246.246,0,0,1,.088-.146.24.24,0,0,1,.158-.062Zm.693,2.009a3.563,3.563,0,0,1,.327-.812,2.341,2.341,0,0,1,.546-.662,2.57,2.57,0,0,1,.8-.446,3.251,3.251,0,0,1,1.089-.165,2.417,2.417,0,0,1,.916.165,1.966,1.966,0,0,1,.681.446,1.637,1.637,0,0,1,.392.662,1.753,1.753,0,0,1,.05.812q-.054.331-.131.693t-.162.677a3.46,3.46,0,0,1-.331.812,2.453,2.453,0,0,1-.55.666,2.471,2.471,0,0,1-.8.446,3.322,3.322,0,0,1-1.089.162,2.468,2.468,0,0,1-.916-.162,1.858,1.858,0,0,1-.677-.446,1.69,1.69,0,0,1-.389-.666,1.753,1.753,0,0,1-.05-.812q.046-.316.127-.677T14.268-33.414Zm3.094,1.331q.038-.139.081-.308t.081-.346q.038-.177.069-.342t.046-.3a1.155,1.155,0,0,0-.008-.354.626.626,0,0,0-.127-.281.655.655,0,0,0-.258-.189,1.017,1.017,0,0,0-.4-.069,1.233,1.233,0,0,0-.427.069,1.155,1.155,0,0,0-.335.189,1.122,1.122,0,0,0-.246.281,1.371,1.371,0,0,0-.154.354q-.038.131-.081.3t-.081.342q-.038.177-.069.346t-.046.308a.9.9,0,0,0,.131.639.745.745,0,0,0,.654.254,1.114,1.114,0,0,0,.77-.254A1.361,1.361,0,0,0,17.362-32.083Zm2.1,2.047a.165.165,0,0,1-.135-.062.172.172,0,0,1-.035-.146l1.062-4.971a.246.246,0,0,1,.089-.146.24.24,0,0,1,.158-.062H21.61a.165.165,0,0,1,.135.062.172.172,0,0,1,.035.146l-1.062,4.971a.246.246,0,0,1-.089.146.24.24,0,0,1-.158.062Zm7.38-5.387a.165.165,0,0,1,.135.062.172.172,0,0,1,.035.146l-.177.816a.24.24,0,0,1-.092.146.255.255,0,0,1-.162.062H25.227l-.839,3.948a.246.246,0,0,1-.089.146.24.24,0,0,1-.158.062H23.134A.165.165,0,0,1,23-30.1a.172.172,0,0,1-.035-.146l.839-3.948H22.449a.154.154,0,0,1-.131-.062.18.18,0,0,1-.031-.146l.177-.816a.246.246,0,0,1,.089-.146.24.24,0,0,1,.158-.062ZM26.8-30.036a.165.165,0,0,1-.135-.062.172.172,0,0,1-.035-.146L27.7-35.215a.246.246,0,0,1,.089-.146.24.24,0,0,1,.158-.062h1.008a.164.164,0,0,1,.135.062.172.172,0,0,1,.035.146l-1.062,4.971a.246.246,0,0,1-.089.146.24.24,0,0,1-.158.062Zm6.411-1.231a.154.154,0,0,1,.131.062.18.18,0,0,1,.031.146l-.177.816a.246.246,0,0,1-.089.146.24.24,0,0,1-.158.062H29.306a.165.165,0,0,1-.135-.062.172.172,0,0,1-.035-.146L30.2-35.215a.246.246,0,0,1,.089-.146.24.24,0,0,1,.158-.062h3.586a.164.164,0,0,1,.135.062.172.172,0,0,1,.035.146l-.177.816a.24.24,0,0,1-.092.146.255.255,0,0,1-.162.062H31.4l-.177.831h2.2a.164.164,0,0,1,.135.062.172.172,0,0,1,.035.146l-.177.816a.24.24,0,0,1-.092.146.255.255,0,0,1-.162.062h-2.2l-.177.862Zm5.91-4.156a.165.165,0,0,1,.135.062.172.172,0,0,1,.035.146l-.177.816a.24.24,0,0,1-.092.146.255.255,0,0,1-.162.062H37.509l-.839,3.948a.246.246,0,0,1-.089.146.24.24,0,0,1-.158.062H35.416a.165.165,0,0,1-.135-.062.172.172,0,0,1-.035-.146l.839-3.948H34.731a.154.154,0,0,1-.131-.062.18.18,0,0,1-.031-.146l.177-.816a.246.246,0,0,1,.089-.146.24.24,0,0,1,.158-.062Z" transform="translate(-3.775 35.5)" fill="#fff"/>
    </g>
  </g>
</svg>
